<svg width="128" height="128" viewBox="0 0 128 128" fill="none" xmlns="http://www.w3.org/2000/svg">
<path d="M0 44C0 28.5986 0 20.8978 2.99732 15.0153C5.63384 9.8408 9.8408 5.63384 15.0153 2.99732C20.8978 0 28.5986 0 44 0H84C99.4014 0 107.102 0 112.985 2.99732C118.159 5.63384 122.366 9.8408 125.003 15.0153C128 20.8978 128 28.5986 128 44V84C128 99.4014 128 107.102 125.003 112.985C122.366 118.159 118.159 122.366 112.985 125.003C107.102 128 99.4014 128 84 128H44C28.5986 128 20.8978 128 15.0153 125.003C9.8408 122.366 5.63384 118.159 2.99732 112.985C0 107.102 0 99.4014 0 84V44Z" fill="white" style="fill:white;fill-opacity:1;"/>
<mask id="mask0_61_32446" style="mask-type:alpha" maskUnits="userSpaceOnUse" x="0" y="0" width="128" height="128">
<path d="M0 44C0 28.5986 0 20.8978 2.99732 15.0153C5.63384 9.8408 9.8408 5.63384 15.0153 2.99732C20.8978 0 28.5986 0 44 0H84C99.4014 0 107.102 0 112.985 2.99732C118.159 5.63384 122.366 9.8408 125.003 15.0153C128 20.8978 128 28.5986 128 44V84C128 99.4014 128 107.102 125.003 112.985C122.366 118.159 118.159 122.366 112.985 125.003C107.102 128 99.4014 128 84 128H44C28.5986 128 20.8978 128 15.0153 125.003C9.8408 122.366 5.63384 118.159 2.99732 112.985C0 107.102 0 99.4014 0 84V44Z" fill="white" style="fill:white;fill-opacity:1;"/>
</mask>
<g mask="url(#mask0_61_32446)">
<rect x="-12.7998" y="-10.8799" width="151.174" height="151.174" rx="24.5" fill="white" style="fill:white;fill-opacity:1;"/>
<path d="M13.6834 105.696C21.421 110.944 32.4674 108.627 42.1506 102.253C51.8338 95.8785 59.7122 96.3073 59.7122 96.3073C66.7138 95.6673 71.8722 99.3537 71.2962 104.525C70.7202 109.696 64.8002 113.786 57.5362 115.047C76.3906 113.677 78.7778 101.184 78.7778 101.184C81.5682 91.2513 70.6498 85.1393 57.0178 88.3841C71.4882 72.6849 83.1619 71.5329 83.1619 71.5329C93.9203 68.2369 101.914 74.8801 101.018 86.3553C100.122 97.8305 91.085 108.352 79.8978 113.088C108.871 104.986 112.461 77.0241 112.461 77.0241C118.464 45.1393 82.093 37.4721 51.661 80.2241C28.8002 112.339 12.4482 104.499 12.4482 104.499C12.7895 104.965 13.2072 105.37 13.6834 105.696Z" fill="#1C2B59" style="fill:#1C2B59;fill:color(display-p3 0.1098 0.1686 0.3490);fill-opacity:1;"/>
<path d="M19.1299 102.618C19.1299 102.618 46.8099 93.4401 52.6979 58.8161C56.4163 36.9473 62.9763 24.7233 75.3283 14.0801C75.3283 14.0801 38.3939 22.4001 36.6339 57.2545C34.9955 89.6385 28.8003 94.9761 19.1299 102.618Z" fill="#005BAB" style="fill:#005BAB;fill:color(display-p3 0.0000 0.3569 0.6706);fill-opacity:1;"/>
<path d="M23.1934 94.9698C23.1934 94.9698 32.7934 84.6146 32.6974 59.7698C32.6398 44.621 36.0062 35.6354 43.5198 26.4194C43.5198 26.4194 24.6718 36.3842 27.0014 61.7218C27.8718 71.3218 28.403 85.1778 23.1934 94.9698Z" fill="#008BD5" style="fill:#008BD5;fill:color(display-p3 0.0000 0.5451 0.8353);fill-opacity:1;"/>
<path d="M54.2529 68.7363C54.2529 68.7363 57.2033 63.6163 59.3729 50.6563C62.8353 29.7155 80.9537 21.2163 80.9537 21.2163C80.9537 21.2163 69.9329 33.5299 67.9041 46.9827C67.2613 51.357 65.7157 55.5498 63.3656 59.2947C61.0155 63.0397 57.9122 66.255 54.2529 68.7363V68.7363Z" fill="#C8C9CA" style="fill:#C8C9CA;fill:color(display-p3 0.7843 0.7882 0.7922);fill-opacity:1;"/>
</g>
</svg>
