<svg width="139" height="143" viewBox="0 0 139 143" fill="none" xmlns="http://www.w3.org/2000/svg">
<path d="M59.5189 128.04L123.249 110.049L52.8562 83.5135L1.69727 98.1097L59.5189 128.04Z" fill="#1A6DCC" stroke="#1F2C5C" style="fill:#1A6DCC;fill:color(display-p3 0.1020 0.4275 0.8000);fill-opacity:1;stroke:#1F2C5C;stroke:color(display-p3 0.1216 0.1725 0.3608);stroke-opacity:1;" stroke-width="1.81362" stroke-linecap="round" stroke-linejoin="round"/>
<path d="M59.5199 141.308L123.636 123.967C128.253 122.668 129.999 118.836 129.194 115.083C128.39 111.329 125.266 109.458 120.727 110.38L59.5199 128.041V141.308Z" fill="white" stroke="#1F2C5C" style="fill:white;fill-opacity:1;stroke:#1F2C5C;stroke:color(display-p3 0.1216 0.1725 0.3608);stroke-opacity:1;" stroke-width="1.93971" stroke-linecap="round" stroke-linejoin="round"/>
<path d="M1.69727 108.817L59.5189 141.307V128.04L1.69727 98.1097V108.817Z" fill="white" stroke="#1F2C5C" style="fill:white;fill-opacity:1;stroke:#1F2C5C;stroke:color(display-p3 0.1216 0.1725 0.3608);stroke-opacity:1;" stroke-width="1.93971" stroke-linecap="round" stroke-linejoin="round"/>
<path d="M59.5189 128.04L123.249 110.049L52.8562 83.5135L1.69727 98.1097L59.5189 128.04Z" fill="#1A6DCC" stroke="#1F2C5C" style="fill:#1A6DCC;fill:color(display-p3 0.1020 0.4275 0.8000);fill-opacity:1;stroke:#1F2C5C;stroke:color(display-p3 0.1216 0.1725 0.3608);stroke-opacity:1;" stroke-width="3.39449" stroke-linecap="round" stroke-linejoin="round"/>
<path d="M59.5199 141.308L123.636 123.967C128.253 122.668 129.999 118.836 129.194 115.083C128.39 111.329 125.266 109.458 120.727 110.38L59.5199 128.041V141.308Z" stroke="#1F2C5C" style="stroke:#1F2C5C;stroke:color(display-p3 0.1216 0.1725 0.3608);stroke-opacity:1;" stroke-width="3.39449" stroke-linecap="round" stroke-linejoin="round"/>
<path d="M1.69727 108.817L59.5189 141.307V128.04L1.69727 98.1097V108.817Z" stroke="#1F2C5C" style="stroke:#1F2C5C;stroke:color(display-p3 0.1216 0.1725 0.3608);stroke-opacity:1;" stroke-width="3.39449" stroke-linecap="round" stroke-linejoin="round"/>
<path d="M77.9653 113.086L20.5015 100.575L78.0041 74.6592L136.428 84.29L77.9653 113.086Z" fill="#AAAAAA" stroke="#1F2C5C" style="fill:#AAAAAA;fill:color(display-p3 0.6667 0.6667 0.6667);fill-opacity:1;stroke:#1F2C5C;stroke:color(display-p3 0.1216 0.1725 0.3608);stroke-opacity:1;" stroke-width="1.93971" stroke-linecap="round" stroke-linejoin="round"/>
<path d="M77.9652 124.897L21.7621 112.56C17.6399 111.649 15.0117 109.36 15.2738 106.092C15.5359 102.833 18.7073 100.156 22.7129 100.748L77.9751 113.085V124.897H77.9652Z" fill="white" stroke="#1F2C5C" style="fill:white;fill-opacity:1;stroke:#1F2C5C;stroke:color(display-p3 0.1216 0.1725 0.3608);stroke-opacity:1;" stroke-width="1.93971" stroke-linecap="round" stroke-linejoin="round"/>
<path d="M136.427 94.5805L77.9642 124.898V113.086L136.427 84.2899V94.5805Z" fill="white" stroke="#1F2C5C" style="fill:white;fill-opacity:1;stroke:#1F2C5C;stroke:color(display-p3 0.1216 0.1725 0.3608);stroke-opacity:1;" stroke-width="1.93971" stroke-linecap="round" stroke-linejoin="round"/>
<path d="M77.9653 113.086L20.5015 100.575L78.0041 74.6592L136.428 84.29L77.9653 113.086Z" stroke="#1F2C5C" style="stroke:#1F2C5C;stroke:color(display-p3 0.1216 0.1725 0.3608);stroke-opacity:1;" stroke-width="3.39449" stroke-linecap="round" stroke-linejoin="round"/>
<path d="M77.9652 124.897L21.7621 112.56C17.6399 111.649 15.0117 109.36 15.2738 106.092C15.5359 102.833 18.7073 100.156 22.7129 100.748L77.9751 113.085V124.897H77.9652Z" stroke="#1F2C5C" style="stroke:#1F2C5C;stroke:color(display-p3 0.1216 0.1725 0.3608);stroke-opacity:1;" stroke-width="3.39449" stroke-linecap="round" stroke-linejoin="round"/>
<path d="M136.427 94.5805L77.9642 124.898V113.086L136.427 84.2899V94.5805Z" stroke="#1F2C5C" style="stroke:#1F2C5C;stroke:color(display-p3 0.1216 0.1725 0.3608);stroke-opacity:1;" stroke-width="3.39449" stroke-linecap="round" stroke-linejoin="round"/>
<path d="M65.2507 89.5952L5.53638 80.7498L60.8185 54.2823L121.046 62.8557L65.2507 89.5952Z" fill="#EFB924" stroke="#1F2C5C" style="fill:#EFB924;fill:color(display-p3 0.9373 0.7255 0.1412);fill-opacity:1;stroke:#1F2C5C;stroke:color(display-p3 0.1216 0.1725 0.3608);stroke-opacity:1;" stroke-width="1.93971" stroke-linecap="round" stroke-linejoin="round"/>
<path d="M65.2507 89.5952L5.53638 80.7498L60.8185 54.2823L121.046 62.8557L65.2507 89.5952Z" stroke="#1F2C5C" style="stroke:#1F2C5C;stroke:color(display-p3 0.1216 0.1725 0.3608);stroke-opacity:1;" stroke-width="3.39449" stroke-linecap="round" stroke-linejoin="round"/>
<path d="M65.2517 89.5942L121.057 62.8556C124.591 64.8838 125.17 69.7455 122.211 72.5472L121.057 73.6405L68.1999 101.232C68.1999 101.232 65.1062 103.134 59.9265 102.28" fill="#EFB924" style="fill:#EFB924;fill:color(display-p3 0.9373 0.7255 0.1412);fill-opacity:1;"/>
<path d="M65.2517 89.5942L121.057 62.8556C124.591 64.8838 125.17 69.7455 122.211 72.5472L121.057 73.6405L68.1999 101.232C68.1999 101.232 65.1062 103.134 59.9265 102.28" stroke="#1F2C5C" style="stroke:#1F2C5C;stroke:color(display-p3 0.1216 0.1725 0.3608);stroke-opacity:1;" stroke-width="3.39449" stroke-linecap="round" stroke-linejoin="round"/>
<path d="M5.53638 93.2799L59.9255 102.281C65.764 103.183 69.1397 100.292 69.4496 96.5101C69.7506 92.7278 66.5015 89.973 60.7308 88.9354L5.53638 80.7109V93.2709V93.2799Z" fill="white" stroke="#1F2C5C" style="fill:white;fill-opacity:1;stroke:#1F2C5C;stroke:color(display-p3 0.1216 0.1725 0.3608);stroke-opacity:1;" stroke-width="3.39449" stroke-linecap="round" stroke-linejoin="round"/>
<path d="M59.8787 12.1717C63.6899 11.3377 71.0313 3.53028 71.6812 1.11536C73.3496 2.23073 70.0257 10.2689 70.0257 10.2689C73.9247 5.80766 74.2905 5.76091 74.2905 5.76091C74.6582 8.73836 72.4197 17.4571 68.4241 18.7568C64.4284 20.0563 59.8876 12.1717 59.8876 12.1717H59.8787Z" fill="#EFB924" stroke="#1F2C5C" style="fill:#EFB924;fill:color(display-p3 0.9373 0.7255 0.1412);fill-opacity:1;stroke:#1F2C5C;stroke:color(display-p3 0.1216 0.1725 0.3608);stroke-opacity:1;" stroke-width="2.23066" stroke-linecap="round" stroke-linejoin="round"/>
<path d="M33.7889 66.939C33.7889 63.5354 34.0889 60.2663 34.5932 57.1727C36.9115 42.8097 43.5353 32.0726 44.535 27.8736C45.7469 22.7721 46.2801 11.2308 58.5003 11.2308C70.7204 11.2308 71.2536 22.7721 72.4666 27.8736C73.0287 30.2687 75.4336 34.7985 77.8296 40.9081C80.5256 47.814 84.3668 52.4594 83.2126 66.939C83.2126 66.939 82.5718 79.5379 59.8976 80.3432C35.7284 81.1963 33.8178 66.939 33.8178 66.939H33.7889Z" fill="white" stroke="#1F2C5C" style="fill:white;fill-opacity:1;stroke:#1F2C5C;stroke:color(display-p3 0.1216 0.1725 0.3608);stroke-opacity:1;" stroke-width="2.90956" stroke-miterlimit="10"/>
<path d="M50.4921 24.1004C51.2257 24.1004 51.8207 23.3709 51.8207 22.471C51.8207 21.5712 51.2257 20.8417 50.4921 20.8417C49.7576 20.8417 49.1636 21.5712 49.1636 22.471C49.1636 23.3709 49.7576 24.1004 50.4921 24.1004Z" fill="#1F2C5C" style="fill:#1F2C5C;fill:color(display-p3 0.1216 0.1725 0.3608);fill-opacity:1;"/>
<path d="M63.4099 24.1C64.1434 24.1 64.7384 23.3704 64.7384 22.4706C64.7384 21.5707 64.1434 20.8412 63.4099 20.8412C62.6753 20.8412 62.0803 21.5707 62.0803 22.4706C62.0803 23.3704 62.6753 24.1 63.4099 24.1Z" fill="#1F2C5C" style="fill:#1F2C5C;fill:color(display-p3 0.1216 0.1725 0.3608);fill-opacity:1;"/>
<path d="M52.6848 28.5031C52.6359 31.1706 54.3043 34.6032 56.2538 34.6032C58.2033 34.6032 60.686 31.1706 60.6372 28.5031" fill="#EFB924" style="fill:#EFB924;fill:color(display-p3 0.9373 0.7255 0.1412);fill-opacity:1;"/>
<path d="M52.6848 28.5031C52.6359 31.1706 54.3043 34.6032 56.2538 34.6032C58.2033 34.6032 60.686 31.1706 60.6372 28.5031" stroke="#1F2C5C" style="stroke:#1F2C5C;stroke:color(display-p3 0.1216 0.1725 0.3608);stroke-opacity:1;" stroke-width="2.13368" stroke-linecap="round" stroke-linejoin="round"/>
<path d="M56.2519 23.7307C53.9147 23.7307 52.6729 26.747 52.6729 28.0854C52.6729 29.4238 54.2735 30.462 56.1542 31.063C58.027 30.452 60.6352 29.4238 60.6352 28.0854C60.6352 26.747 58.5891 23.7307 56.2519 23.7307Z" fill="#EFB924" stroke="#1F2C5C" style="fill:#EFB924;fill:color(display-p3 0.9373 0.7255 0.1412);fill-opacity:1;stroke:#1F2C5C;stroke:color(display-p3 0.1216 0.1725 0.3608);stroke-opacity:1;" stroke-width="2.13368" stroke-linecap="round" stroke-linejoin="round"/>
<path d="M47.834 29.9775C48.7071 29.9775 49.4147 28.9873 49.4147 27.7661C49.4147 26.5449 48.7071 25.5548 47.834 25.5548C46.9609 25.5548 46.2533 26.5449 46.2533 27.7661C46.2533 28.9873 46.9609 29.9775 47.834 29.9775Z" fill="#EFB924" style="fill:#EFB924;fill:color(display-p3 0.9373 0.7255 0.1412);fill-opacity:1;"/>
<path d="M65.8348 29.9775C67.0557 29.9775 68.0464 28.9873 68.0464 27.7661C68.0464 26.5449 67.0557 25.5548 65.8348 25.5548C64.6138 25.5548 63.6232 26.5449 63.6232 27.7661C63.6232 28.9873 64.6138 29.9775 65.8348 29.9775Z" fill="#EFB924" style="fill:#EFB924;fill:color(display-p3 0.9373 0.7255 0.1412);fill-opacity:1;"/>
<path d="M53.6505 75.1435C51.7887 75.4824 49.8004 75.2502 48.0353 74.6293V39.5007L53.6505 40.015V75.1435Z" fill="#1A6DCC" style="fill:#1A6DCC;fill:color(display-p3 0.1020 0.4275 0.8000);fill-opacity:1;"/>
<path d="M31.7139 68.0542L48.0363 74.6302V39.2695L32.6836 31.9559L31.7139 68.0542Z" fill="#1A6DCC" style="fill:#1A6DCC;fill:color(display-p3 0.1020 0.4275 0.8000);fill-opacity:1;"/>
<path d="M77.3921 68.0532L53.6505 75.1435V40.015L77.3921 32.9257V68.0532Z" fill="#1A6DCC" style="fill:#1A6DCC;fill:color(display-p3 0.1020 0.4275 0.8000);fill-opacity:1;"/>
<path d="M53.6505 75.1435C51.7887 75.4824 49.8004 75.2502 48.0353 74.6293V39.5007L53.6505 40.015V75.1435Z" fill="#1A6DCC" stroke="#1F2C5C" style="fill:#1A6DCC;fill:color(display-p3 0.1020 0.4275 0.8000);fill-opacity:1;stroke:#1F2C5C;stroke:color(display-p3 0.1216 0.1725 0.3608);stroke-opacity:1;" stroke-width="1.93971" stroke-linecap="round" stroke-linejoin="round"/>
<path d="M31.7139 68.0542L48.0363 74.6302V39.2695L32.6836 31.9559L31.7139 68.0542Z" fill="#27B24A" stroke="#1F2C5C" style="fill:#27B24A;fill:color(display-p3 0.1529 0.6980 0.2902);fill-opacity:1;stroke:#1F2C5C;stroke:color(display-p3 0.1216 0.1725 0.3608);stroke-opacity:1;" stroke-width="1.93971" stroke-linecap="round" stroke-linejoin="round"/>
<path d="M77.3921 68.0532L53.6505 75.1435V40.015L77.3921 32.9257V68.0532Z" fill="#1A6DCC" stroke="#1F2C5C" style="fill:#1A6DCC;fill:color(display-p3 0.1020 0.4275 0.8000);fill-opacity:1;stroke:#1F2C5C;stroke:color(display-p3 0.1216 0.1725 0.3608);stroke-opacity:1;" stroke-width="1.93971" stroke-linecap="round" stroke-linejoin="round"/>
<path d="M53.6505 75.1435C51.7887 75.4824 49.8004 75.2502 48.0353 74.6293V39.5007L53.6505 40.015V75.1435Z" stroke="#1F2C5C" style="stroke:#1F2C5C;stroke:color(display-p3 0.1216 0.1725 0.3608);stroke-opacity:1;" stroke-width="2.42463" stroke-linecap="round" stroke-linejoin="round"/>
<path d="M31.7139 68.0542L48.0363 74.6302V39.2695L32.6836 31.9559L31.7139 68.0542Z" fill="#1A6DCC" stroke="#1F2C5C" style="fill:#1A6DCC;fill:color(display-p3 0.1020 0.4275 0.8000);fill-opacity:1;stroke:#1F2C5C;stroke:color(display-p3 0.1216 0.1725 0.3608);stroke-opacity:1;" stroke-width="2.42463" stroke-linecap="round" stroke-linejoin="round"/>
<path d="M77.3921 68.0532L53.6505 75.1435V40.015L77.3921 32.9257V68.0532Z" stroke="#1F2C5C" style="stroke:#1F2C5C;stroke:color(display-p3 0.1216 0.1725 0.3608);stroke-opacity:1;" stroke-width="2.42463" stroke-linecap="round" stroke-linejoin="round"/>
<path d="M27.2708 45.2436C27.2708 45.2436 28.405 41.7811 31.0432 41.219C33.2647 40.7436 35.9219 42.8675 35.1454 46.0578C35.1454 46.0578 37.2604 46.5332 37.7737 48.6093C38.4623 51.402 36.8627 53.177 35.592 54.1857C35.592 54.1857 37.5125 55.0876 37.2993 57.8514C36.7461 65.0483 30.7133 64.5829 28.7937 63.2444C23.4685 59.5198 26.2911 47.6196 27.2608 45.2535L27.2708 45.2436Z" fill="white" stroke="#1F2C5C" style="fill:white;fill-opacity:1;stroke:#1F2C5C;stroke:color(display-p3 0.1216 0.1725 0.3608);stroke-opacity:1;" stroke-width="2.90956" stroke-linejoin="round"/>
<path d="M82.3416 45.1757C82.3416 45.1757 80.9941 41.6745 78.026 41.0635C75.5144 40.5392 72.5663 42.6153 73.5071 45.8345C73.5071 45.8345 71.1401 46.2711 70.5969 48.3471C69.8793 51.1308 71.7032 52.9438 73.1573 53.9813C73.1573 53.9813 71.0145 54.8444 71.3055 57.6191C72.062 64.844 78.8413 64.4951 80.9652 63.1855C86.8714 59.5487 83.4768 47.5618 82.3326 45.1658L82.3416 45.1757Z" fill="white" stroke="#1F2C5C" style="fill:white;fill-opacity:1;stroke:#1F2C5C;stroke:color(display-p3 0.1216 0.1725 0.3608);stroke-opacity:1;" stroke-width="2.90956" stroke-linejoin="round"/>
<path d="M37.6989 78.9847C37.6989 78.9847 39.454 79.4502 40.6271 77.7429C41.6646 76.22 43.0131 71.0901 43.7507 68.442C44.4872 65.8038 42.8487 63.1955 40.7248 64.4753C37.9511 66.1437 38.1056 62.8846 36.3793 63.1467C34.6531 63.4088 32.8591 65.6683 33.8578 70.7114C34.8564 75.7545 35.3418 78.4804 37.7079 78.9748L37.6989 78.9847Z" fill="white" stroke="#1F2C5C" style="fill:white;fill-opacity:1;stroke:#1F2C5C;stroke:color(display-p3 0.1216 0.1725 0.3608);stroke-opacity:1;" stroke-width="2.90956" stroke-linejoin="round"/>
<path d="M67.6876 83.2136C67.6876 83.2136 65.7869 83.7179 64.5262 81.875C63.4009 80.2266 61.9458 74.6891 61.1604 71.8277C60.3651 68.9762 62.1402 66.1636 64.4285 67.541C67.4255 69.345 67.261 65.8148 69.1228 66.1058C70.9846 66.3968 72.9251 68.8307 71.8477 74.2814C70.7713 79.7322 70.2381 82.6704 67.6876 83.2136Z" fill="white" stroke="#1F2C5C" style="fill:white;fill-opacity:1;stroke:#1F2C5C;stroke:color(display-p3 0.1216 0.1725 0.3608);stroke-opacity:1;" stroke-width="2.90956" stroke-linejoin="round"/>
</svg>
