<svg width="405" height="405" viewBox="0 0 405 405" fill="none" xmlns="http://www.w3.org/2000/svg">
<mask id="mask0_61_32225" style="mask-type:luminance" maskUnits="userSpaceOnUse" x="0" y="0" width="405" height="405">
<path d="M405 0H0V405H405V0Z" fill="white" style="fill:white;fill-opacity:1;"/>
</mask>
<g mask="url(#mask0_61_32225)">
<path d="M185.032 319.272C198.712 323.952 208.432 321.222 211.582 319.272L219.5 406H178L185.032 319.272Z" fill="white" style="fill:white;fill-opacity:1;"/>
<path d="M162.91 282.633L170.35 273.18V239.293L227.033 242.944V273.784L236.512 283.162L251.014 288.751C238.753 310.893 213.451 320.548 200.788 320.548C188.124 320.548 160.053 313.663 152.147 288.751L162.91 282.621" fill="white" style="fill:white;fill-opacity:1;"/>
<path d="M162.91 282.633L170.35 273.18V239.293L227.033 242.944V273.784L236.512 283.162L251.014 288.751C238.753 310.893 213.451 320.548 200.788 320.548C188.124 320.548 160.053 313.663 152.147 288.751L162.91 282.621" stroke="#1F2C5C" style="stroke:#1F2C5C;stroke:color(display-p3 0.1216 0.1725 0.3608);stroke-opacity:1;" stroke-width="5.03519" stroke-linecap="round" stroke-linejoin="round"/>
<g style="mix-blend-mode:darken" opacity="0.2">
<path d="M171.823 249.301L171.924 271.066L160.758 285.794L167.43 296.066L224.768 259.749L225.334 244.795L171.823 249.301Z" fill="#1A6DCC" style="fill:#1A6DCC;fill:color(display-p3 0.1020 0.4275 0.8000);fill-opacity:1;"/>
</g>
<path d="M250.334 194.076C248.659 194.076 246.104 195.323 246.104 195.323C244.417 163.664 237.469 130.822 197.93 132.043C158.391 130.822 151.455 163.651 149.756 195.323C149.756 195.323 147.2 194.064 145.526 194.076C139.975 194.076 135.468 199.728 135.468 206.715C135.468 213.689 139.975 219.34 145.526 219.34C147.188 219.34 148.761 218.824 150.146 217.931C149.24 232.105 158.517 247.752 176.669 261.044C188.401 268.824 198.018 269.151 198.018 269.151C198.018 269.151 207.434 268.824 219.166 261.044C237.318 247.764 246.608 232.105 245.689 217.931C247.073 218.837 248.647 219.34 250.309 219.34C255.86 219.34 260.367 213.689 260.367 206.715C260.367 199.741 255.873 194.089 250.309 194.076H250.334Z" fill="white" stroke="#1F2C5C" style="fill:white;fill-opacity:1;stroke:#1F2C5C;stroke:color(display-p3 0.1216 0.1725 0.3608);stroke-opacity:1;" stroke-width="5.03519" stroke-linecap="round" stroke-linejoin="round"/>
<path d="M184.876 176.428C181.427 167.466 170.514 169.606 167.039 179.386" stroke="#1F2C5C" style="stroke:#1F2C5C;stroke:color(display-p3 0.1216 0.1725 0.3608);stroke-opacity:1;" stroke-width="4.67014" stroke-linecap="round" stroke-linejoin="round"/>
<path d="M227.021 178.745C222.187 168.246 213.074 168.976 209.398 176.063" stroke="#1F2C5C" style="stroke:#1F2C5C;stroke:color(display-p3 0.1216 0.1725 0.3608);stroke-opacity:1;" stroke-width="4.67014" stroke-linecap="round" stroke-linejoin="round"/>
<path d="M195.866 250.835C195.866 250.835 198.257 252.812 201.568 251.012" stroke="#1F2C5C" style="stroke:#1F2C5C;stroke:color(display-p3 0.1216 0.1725 0.3608);stroke-opacity:1;" stroke-width="3.73863" stroke-linecap="round" stroke-linejoin="round"/>
<path d="M182.396 232.849C190.591 235.782 209.36 234.888 215.251 232.849C209.36 247.577 190.78 250.296 182.396 232.849Z" fill="white" stroke="#1F2C5C" style="fill:white;fill-opacity:1;stroke:#1F2C5C;stroke:color(display-p3 0.1216 0.1725 0.3608);stroke-opacity:1;" stroke-width="5.03519" stroke-linecap="round" stroke-linejoin="round"/>
<path d="M198.346 194.303L198.484 224.803L190.616 214.255L198.346 194.303Z" fill="white" stroke="#1F2C5C" style="fill:white;fill-opacity:1;stroke:#1F2C5C;stroke:color(display-p3 0.1216 0.1725 0.3608);stroke-opacity:1;" stroke-width="5.03519" stroke-linecap="round" stroke-linejoin="round"/>
<path d="M178.266 203.961C178.357 201.028 176.87 198.603 174.945 198.543C173.02 198.484 171.387 200.813 171.296 203.745C171.205 206.678 172.692 209.103 174.617 209.162C176.542 209.222 178.176 206.893 178.266 203.961Z" fill="#1F2C5C" style="fill:#1F2C5C;fill:color(display-p3 0.1216 0.1725 0.3608);fill-opacity:1;"/>
<path d="M222.962 203.958C223.053 201.025 221.566 198.6 219.641 198.54C217.716 198.481 216.082 200.81 215.992 203.742C215.901 206.675 217.388 209.1 219.313 209.159C221.238 209.219 222.871 206.89 222.962 203.958Z" fill="#1F2C5C" style="fill:#1F2C5C;fill:color(display-p3 0.1216 0.1725 0.3608);fill-opacity:1;"/>
<path d="M150.184 199.679C163.54 202.486 180.005 180.23 186.173 168.221C192.341 156.212 210.997 144.782 220.022 156.54C229.111 155.243 239.659 161.688 240.641 172.715C241.61 183.742 235.09 192.856 245.148 198.369C250.334 195.776 256.741 196.96 258.692 200.207C265.528 197.841 275.862 181.955 267.353 168.309C258.566 154.236 261.764 154.588 259.699 140.251C257.874 127.575 244.267 103.582 224.478 112.67C181.73 60.9464 118.412 144.996 123.271 177.763C124.895 191.383 134.902 199.037 134.902 199.037C139.774 192.868 144.381 193.221 150.197 199.679H150.184Z" fill="#1A6DCC" stroke="#1F2C5C" style="fill:#1A6DCC;fill:color(display-p3 0.1020 0.4275 0.8000);fill-opacity:1;stroke:#1F2C5C;stroke:color(display-p3 0.1216 0.1725 0.3608);stroke-opacity:1;" stroke-width="5.03519" stroke-linecap="round" stroke-linejoin="round"/>
<path d="M143.714 194.531C159.336 195.11 163.364 168.977 173.887 160.908Z" fill="#1A6DCC" style="fill:#1A6DCC;fill:color(display-p3 0.1020 0.4275 0.8000);fill-opacity:1;"/>
<path d="M143.714 194.531C159.336 195.11 163.364 168.977 173.887 160.908" stroke="#1F2C5C" style="stroke:#1F2C5C;stroke:color(display-p3 0.1216 0.1725 0.3608);stroke-opacity:1;" stroke-width="5.03519" stroke-linecap="round" stroke-linejoin="round"/>
<path d="M224.453 112.658C228.783 118.663 231.742 126.241 231.742 126.241Z" fill="#1A6DCC" style="fill:#1A6DCC;fill:color(display-p3 0.1020 0.4275 0.8000);fill-opacity:1;"/>
<path d="M224.453 112.658C228.783 118.663 231.742 126.241 231.742 126.241" stroke="#1F2C5C" style="stroke:#1F2C5C;stroke:color(display-p3 0.1216 0.1725 0.3608);stroke-opacity:1;" stroke-width="5.03519" stroke-linecap="round" stroke-linejoin="round"/>
<path d="M68.6516 456.246C67.7326 405.278 74.6812 341.482 93.1855 321.857C116.096 297.575 162.898 282.633 162.898 282.633C162.898 282.633 163.779 306.147 185.632 310.616L174.655 456.234" fill="#1A6DCC" style="fill:#1A6DCC;fill:color(display-p3 0.1020 0.4275 0.8000);fill-opacity:1;"/>
<path d="M68.6516 456.246C67.7326 405.278 74.6812 341.482 93.1855 321.857C116.096 297.575 162.898 282.633 162.898 282.633C162.898 282.633 163.779 306.147 185.632 310.616L174.655 456.234" stroke="#1F2C5C" style="stroke:#1F2C5C;stroke:color(display-p3 0.1216 0.1725 0.3608);stroke-opacity:1;" stroke-width="5.03519" stroke-linecap="round" stroke-linejoin="round"/>
<path d="M328.996 456.246C329.915 405.278 322.967 341.482 304.462 321.857C281.552 297.575 234.75 282.633 234.75 282.633C234.75 282.633 233.869 306.147 212.016 310.616L222.993 456.234" fill="#1A6DCC" style="fill:#1A6DCC;fill:color(display-p3 0.1020 0.4275 0.8000);fill-opacity:1;"/>
<path d="M328.996 456.246C329.915 405.278 322.967 341.482 304.462 321.857C281.552 297.575 234.75 282.633 234.75 282.633C234.75 282.633 233.869 306.147 212.016 310.616L222.993 456.234" stroke="#1F2C5C" style="stroke:#1F2C5C;stroke:color(display-p3 0.1216 0.1725 0.3608);stroke-opacity:1;" stroke-width="5.03519" stroke-linecap="round" stroke-linejoin="round"/>
</g>
</svg>
