<svg width="405" height="405" viewBox="0 0 405 405" fill="none" xmlns="http://www.w3.org/2000/svg">
<mask id="mask0_61_31948" style="mask-type:luminance" maskUnits="userSpaceOnUse" x="27" y="68" width="375" height="337">
<path d="M401.76 68.261H27.7324V405H401.76V68.261Z" fill="white" style="fill:white;fill-opacity:1;"/>
</mask>
<g mask="url(#mask0_61_31948)">
<path d="M180.268 242.44V275.615L150.004 292.032C151.687 301.019 181.951 335.865 208.405 335.865C232.935 335.865 269.427 306.613 276.173 293.437L238.049 276.007V240.288L180.268 242.452V242.44Z" fill="white" stroke="#1F2C5C" style="fill:white;fill-opacity:1;stroke:#1F2C5C;stroke:color(display-p3 0.1216 0.1725 0.3608);stroke-opacity:1;" stroke-width="5.06298" stroke-linecap="round" stroke-linejoin="round"/>
<g style="mix-blend-mode:darken" opacity="0.2">
<path d="M179.369 249.186L180.976 274.704L160.053 289.412L168.559 298.614L239.694 259.388L240.416 243.946L179.369 249.186Z" fill="#1A6DCC" style="fill:#1A6DCC;fill:color(display-p3 0.1020 0.4275 0.8000);fill-opacity:1;"/>
</g>
<path d="M114.879 418.024C107.943 371.381 95.9057 325.232 124.714 309.891C147.434 297.778 142.675 292.272 142.675 292.272C147.738 298.246 210.797 324.738 210.797 324.738C210.797 324.738 279.16 295.614 281.958 294.474C281.945 294.474 306.956 301.031 311.943 333.257C316.107 360.192 311.336 417.581 311.336 417.581L114.879 418.011V418.024Z" fill="#1A6DCC" stroke="#1F2C5C" style="fill:#1A6DCC;fill:color(display-p3 0.1020 0.4275 0.8000);fill-opacity:1;stroke:#1F2C5C;stroke:color(display-p3 0.1216 0.1725 0.3608);stroke-opacity:1;" stroke-width="5.06298" stroke-linecap="round" stroke-linejoin="round"/>
<path d="M250.946 281.589L229.176 415.961H311.335C311.335 415.961 314.968 355.458 313.664 342.927C312.36 330.396 307.158 306.221 289.4 297.272C271.641 288.323 250.946 281.589 250.946 281.589Z" fill="white" stroke="#1F2C5C" style="fill:white;fill-opacity:1;stroke:#1F2C5C;stroke:color(display-p3 0.1216 0.1725 0.3608);stroke-opacity:1;" stroke-width="5.06298" stroke-linecap="round" stroke-linejoin="round"/>
<path d="M168.319 281.589L190.09 415.961H107.93C107.93 415.961 104.297 355.458 105.601 342.927C106.905 330.396 112.107 306.221 129.865 297.272C147.636 288.323 168.319 281.589 168.319 281.589Z" fill="white" stroke="#1F2C5C" style="fill:white;fill-opacity:1;stroke:#1F2C5C;stroke:color(display-p3 0.1216 0.1725 0.3608);stroke-opacity:1;" stroke-width="5.06298" stroke-linecap="round" stroke-linejoin="round"/>
<path d="M184.052 380.001L155.446 337.371L160.053 322.195L147.877 309.689L152.206 287.437" stroke="#1F2C5C" style="stroke:#1F2C5C;stroke:color(display-p3 0.1216 0.1725 0.3608);stroke-opacity:1;" stroke-width="5.06298" stroke-linecap="round" stroke-linejoin="round"/>
<path d="M234.606 380.001L264.477 337.371L259.87 322.195L272.046 309.689L267.718 288.703" stroke="#1F2C5C" style="stroke:#1F2C5C;stroke:color(display-p3 0.1216 0.1725 0.3608);stroke-opacity:1;" stroke-width="5.06298" stroke-linecap="round" stroke-linejoin="round"/>
<path d="M126.018 394.064C122.739 397.519 121.322 364.484 125.271 359.205C126.144 358.028 136.852 347.624 135.144 330.6C134.473 323.891 136.422 312.221 138.941 304.905C141.46 297.589 145.346 288.792 141.156 287.222C134.473 284.716 127.271 291.956 125.435 298.272C123.6 304.601 119.119 310.145 119.119 310.145C119.119 310.145 79.5267 326.435 79.9698 332.701C80.4254 338.953 80.6659 343.839 83.3746 351.725C86.7795 361.598 95.9815 364.673 96.6523 391.912" fill="white" style="fill:white;fill-opacity:1;"/>
<path d="M126.018 394.064C122.739 397.519 121.322 364.484 125.271 359.205C126.144 358.028 136.852 347.624 135.144 330.6C134.473 323.891 136.422 312.221 138.941 304.905C141.46 297.589 145.346 288.792 141.156 287.222C134.473 284.716 127.271 291.956 125.435 298.272C123.6 304.601 119.119 310.145 119.119 310.145C119.119 310.145 79.5267 326.435 79.9698 332.701C80.4254 338.953 80.6659 343.839 83.3746 351.725C86.7795 361.598 95.9815 364.673 96.6523 391.912" stroke="#1F2C5C" style="stroke:#1F2C5C;stroke:color(display-p3 0.1216 0.1725 0.3608);stroke-opacity:1;" stroke-width="5.06298" stroke-linecap="round" stroke-linejoin="round"/>
<path d="M112.335 351.371C112.664 349.32 114.183 344.839 116.601 342.7Z" fill="white" style="fill:white;fill-opacity:1;"/>
<path d="M112.335 351.371C112.664 349.32 114.183 344.839 116.601 342.7" stroke="#1F2C5C" style="stroke:#1F2C5C;stroke:color(display-p3 0.1216 0.1725 0.3608);stroke-opacity:1;" stroke-width="5.06298" stroke-linecap="round" stroke-linejoin="round"/>
<path d="M111.591 258.019L80.0933 261.87C75.5969 262.42 72.3975 266.511 72.9472 271.007L81.8651 343.953C82.4148 348.449 86.5054 351.649 91.0018 351.099L122.5 347.248C126.996 346.699 130.195 342.608 129.646 338.112L120.728 265.166C120.178 260.669 116.087 257.47 111.591 258.019Z" fill="#1A6DCC" stroke="#1F2C5C" style="fill:#1A6DCC;fill:color(display-p3 0.1020 0.4275 0.8000);fill-opacity:1;stroke:#1F2C5C;stroke:color(display-p3 0.1216 0.1725 0.3608);stroke-opacity:1;" stroke-width="5.06298" stroke-linecap="round" stroke-linejoin="round"/>
<path d="M115.181 267.76L78.8865 272.217C78.2204 272.298 77.7467 272.905 77.8285 273.571L86.3095 342.643C86.3913 343.309 86.9975 343.783 87.6636 343.701L123.958 339.244C124.625 339.163 125.098 338.556 125.016 337.89L116.535 268.818C116.454 268.152 115.847 267.678 115.181 267.76Z" fill="white" style="fill:white;fill-opacity:1;"/>
<path d="M64.9329 329.283C64.2115 331.954 64.9329 334.954 69.3377 337.574C71.9072 339.093 73.6792 339.991 76.5145 341.118C83.4761 343.877 86.7417 334.334 80.5396 330.498C74.3501 326.676 74.8564 327.536 72.3629 326.271C69.8693 325.005 65.6924 326.486 64.9329 329.283Z" fill="white" stroke="#1F2C5C" style="fill:white;fill-opacity:1;stroke:#1F2C5C;stroke:color(display-p3 0.1216 0.1725 0.3608);stroke-opacity:1;" stroke-width="5.06298" stroke-linecap="round" stroke-linejoin="round"/>
<path d="M66.3377 317.081C65.6162 319.752 66.3377 322.752 70.7425 325.372C73.312 326.891 78.9952 330.346 81.8178 331.473C88.7794 334.232 92.045 324.688 85.8429 320.853C79.6534 317.031 76.2485 315.334 73.755 314.081C71.2615 312.828 67.0845 314.296 66.325 317.094L66.3377 317.081Z" fill="white" stroke="#1F2C5C" style="fill:white;fill-opacity:1;stroke:#1F2C5C;stroke:color(display-p3 0.1216 0.1725 0.3608);stroke-opacity:1;" stroke-width="5.06298" stroke-linecap="round" stroke-linejoin="round"/>
<path d="M66.0721 303.879C65.3506 306.55 66.0721 309.55 70.4769 312.17C73.0463 313.689 78.7295 317.144 81.5521 318.271C88.5137 321.03 91.7794 311.486 85.5772 307.651C79.3751 303.816 75.9829 302.132 73.4893 300.879C70.9958 299.626 66.8189 301.094 66.0594 303.892L66.0721 303.879Z" fill="white" stroke="#1F2C5C" style="fill:white;fill-opacity:1;stroke:#1F2C5C;stroke:color(display-p3 0.1216 0.1725 0.3608);stroke-opacity:1;" stroke-width="5.06298" stroke-linecap="round" stroke-linejoin="round"/>
<path d="M65.2366 290.134C64.5152 292.805 65.2367 295.804 69.6414 298.424C72.2109 299.943 74.2867 301.019 77.1093 302.146C84.0709 304.905 87.3365 295.361 81.1344 291.526C74.9449 287.704 75.1474 288.387 72.6539 287.134C70.1604 285.868 65.9834 287.349 65.224 290.146L65.2366 290.134Z" fill="white" stroke="#1F2C5C" style="fill:white;fill-opacity:1;stroke:#1F2C5C;stroke:color(display-p3 0.1216 0.1725 0.3608);stroke-opacity:1;" stroke-width="5.06298" stroke-linecap="round" stroke-linejoin="round"/>
<path d="M85.2351 269.426C86.2208 269.426 87.0199 268.627 87.0199 267.641C87.0199 266.655 86.2208 265.856 85.2351 265.856C84.2495 265.856 83.4504 266.655 83.4504 267.641C83.4504 268.627 84.2495 269.426 85.2351 269.426Z" fill="white" style="fill:white;fill-opacity:1;"/>
<path d="M100.958 264.491L91.2957 265.668C90.8586 265.722 90.5473 266.119 90.6006 266.556L90.6083 266.619C90.6616 267.056 91.0592 267.368 91.4964 267.314L101.158 266.137C101.596 266.083 101.907 265.686 101.853 265.248L101.846 265.186C101.793 264.748 101.395 264.437 100.958 264.491Z" fill="white" style="fill:white;fill-opacity:1;"/>
<path d="M89.5515 456.997L88.0073 391.646L130.068 385.988L129.904 444.086L89.5515 456.997Z" fill="#1A6DCC" stroke="#1F2C5C" style="fill:#1A6DCC;fill:color(display-p3 0.1020 0.4275 0.8000);fill-opacity:1;stroke:#1F2C5C;stroke:color(display-p3 0.1216 0.1725 0.3608);stroke-opacity:1;" stroke-width="5.06298" stroke-linecap="round" stroke-linejoin="round"/>
<path d="M88.6406 464.882L87.0964 399.531L132.727 393.874L132.562 451.971L88.6406 464.882Z" fill="white" stroke="#1F2C5C" style="fill:white;fill-opacity:1;stroke:#1F2C5C;stroke:color(display-p3 0.1216 0.1725 0.3608);stroke-opacity:1;" stroke-width="5.06298" stroke-linecap="round" stroke-linejoin="round"/>
<path d="M157.788 187.266C153.915 176.089 139.992 178.722 139.447 196.24C138.903 213.758 157.712 206.442 157.712 206.442C156.712 221.884 164.433 244.439 184.976 256.16C197.76 264.628 209.139 264.982 209.139 264.982C209.139 264.982 224.189 267.311 243.555 244.541C253.769 231.453 259.87 206.619 259.87 206.619C268.262 211.808 275.376 209.948 276.35 195.278C276.097 180.658 260.453 187.886 260.453 187.886C261.832 168.33 256.048 116.979 212.987 115.65C169.914 114.321 159.636 152.774 157.801 187.266H157.788Z" fill="white" stroke="#1F2C5C" style="fill:white;fill-opacity:1;stroke:#1F2C5C;stroke:color(display-p3 0.1216 0.1725 0.3608);stroke-opacity:1;" stroke-width="5.06298" stroke-linecap="round" stroke-linejoin="round"/>
<path d="M244.365 172.254C240.087 167.735 233.518 165.684 227.619 169.646" stroke="#1F2C5C" style="stroke:#1F2C5C;stroke:color(display-p3 0.1216 0.1725 0.3608);stroke-opacity:1;" stroke-width="3.79724" stroke-linecap="round" stroke-linejoin="round"/>
<path d="M188.93 194.005C189.029 190.805 187.41 188.159 185.314 188.094C183.218 188.029 181.438 190.571 181.339 193.771C181.24 196.971 182.859 199.618 184.956 199.682C187.052 199.747 188.831 197.206 188.93 194.005Z" fill="#1F2C5C" style="fill:#1F2C5C;fill:color(display-p3 0.1216 0.1725 0.3608);fill-opacity:1;"/>
<path d="M234.277 194.015C234.376 190.815 232.757 188.168 230.661 188.103C228.565 188.038 226.786 190.58 226.687 193.78C226.588 196.98 228.207 199.627 230.303 199.692C232.399 199.757 234.179 197.215 234.277 194.015Z" fill="#1F2C5C" style="fill:#1F2C5C;fill:color(display-p3 0.1216 0.1725 0.3608);fill-opacity:1;"/>
<path d="M206.785 243.945C206.785 243.945 209.38 246.097 213 244.135Z" fill="white" style="fill:white;fill-opacity:1;"/>
<path d="M206.785 243.945C206.785 243.945 209.38 246.097 213 244.135" stroke="#1F2C5C" style="stroke:#1F2C5C;stroke:color(display-p3 0.1216 0.1725 0.3608);stroke-opacity:1;" stroke-width="3.79724" stroke-linecap="round" stroke-linejoin="round"/>
<path d="M194.166 227.149C203.443 241.11 219.784 236.971 224.999 226.542Z" fill="white" style="fill:white;fill-opacity:1;"/>
<path d="M194.166 227.149C203.443 241.11 219.784 236.971 224.999 226.542" stroke="#1F2C5C" style="stroke:#1F2C5C;stroke:color(display-p3 0.1216 0.1725 0.3608);stroke-opacity:1;" stroke-width="5.06298" stroke-linecap="round" stroke-linejoin="round"/>
<path d="M265.439 216.061C268.697 216.061 271.338 213.483 271.338 210.302C271.338 207.121 268.697 204.543 265.439 204.543C262.182 204.543 259.541 207.121 259.541 210.302C259.541 213.483 262.182 216.061 265.439 216.061Z" fill="#EFB924" style="fill:#EFB924;fill:color(display-p3 0.9373 0.7255 0.1412);fill-opacity:1;"/>
<path d="M209.709 186.152L209.861 219.39L201.292 207.885L209.709 186.152Z" fill="white" stroke="#1F2C5C" style="fill:white;fill-opacity:1;stroke:#1F2C5C;stroke:color(display-p3 0.1216 0.1725 0.3608);stroke-opacity:1;" stroke-width="5.06298" stroke-linecap="round" stroke-linejoin="round"/>
<path d="M180.23 270.476C146.384 272.615 118.588 253.376 118.588 253.376C118.588 253.376 137.574 236.427 133.055 180.962C130.195 145.762 143.852 98.6383 177.167 94.5879C257.44 66.058 278.565 147.268 280.375 180.962C281.705 205.708 281.236 233.162 300.336 253.021C282.768 266.767 258.288 272.45 238.074 271.197L237.935 250.756C259.706 233.82 259.554 201.936 259.554 190.342C260.086 168.875 253.757 154.61 242.226 140.572C241.631 159.356 235.517 169.95 230.897 175.456C231.049 175.456 213.101 175.545 202.722 175.912C207.62 166.065 211.646 144.914 211.646 144.914C211.646 144.914 204.38 167.685 195.355 175.203C190.343 175.38 182.951 175.52 176.167 175.608C179.268 171.419 181.445 150.483 181.445 150.483C181.445 150.483 176.179 170.229 168.8 175.697C163.902 175.748 159.332 175.786 159.332 175.786C159.332 175.786 157.522 183.861 157.788 187.278C157.737 184.431 155.965 181.342 150.687 180.798C144.852 180.19 139.561 188.202 142.042 196.253C145.776 208.391 154.674 207.695 157.712 206.455C158.029 218.34 161.56 242.035 180.23 253.123V270.501V270.476Z" fill="#1A6DCC" stroke="#1F2C5C" style="fill:#1A6DCC;fill:color(display-p3 0.1020 0.4275 0.8000);fill-opacity:1;stroke:#1F2C5C;stroke:color(display-p3 0.1216 0.1725 0.3608);stroke-opacity:1;" stroke-width="5.06298" stroke-linecap="round" stroke-linejoin="round"/>
<path d="M263.592 234.858C262.82 252.287 269.199 262.464 274.503 266.02" stroke="#1F2C5C" style="stroke:#1F2C5C;stroke:color(display-p3 0.1216 0.1725 0.3608);stroke-opacity:1;" stroke-width="3.79724" stroke-linecap="round" stroke-linejoin="round"/>
<path d="M266.212 267.539C259.415 262.198 256.921 254.11 256.377 247.705Z" fill="#1A6DCC" style="fill:#1A6DCC;fill:color(display-p3 0.1020 0.4275 0.8000);fill-opacity:1;"/>
<path d="M266.212 267.539C259.415 262.198 256.921 254.11 256.377 247.705" stroke="#1F2C5C" style="stroke:#1F2C5C;stroke:color(display-p3 0.1216 0.1725 0.3608);stroke-opacity:1;" stroke-width="3.79724" stroke-linecap="round" stroke-linejoin="round"/>
<path d="M225.125 133.484C228.201 131.395 232.391 128.522 232.442 117.865" stroke="#1F2C5C" style="stroke:#1F2C5C;stroke:color(display-p3 0.1216 0.1725 0.3608);stroke-opacity:1;" stroke-width="3.79724" stroke-linecap="round" stroke-linejoin="round"/>
<path d="M231.315 136.104C234.391 134.016 238.581 131.143 238.631 120.485" stroke="#1F2C5C" style="stroke:#1F2C5C;stroke:color(display-p3 0.1216 0.1725 0.3608);stroke-opacity:1;" stroke-width="3.79724" stroke-linecap="round" stroke-linejoin="round"/>
<path d="M91.6569 315.651C93.8356 316.626 96.5107 315.556 98.6641 313.527C100.817 311.498 102.818 311.258 102.818 311.258C104.55 310.789 106.017 311.483 106.093 312.81C106.171 314.135 104.868 315.421 103.097 316.06C107.779 314.882 107.827 311.639 107.827 311.639C108.089 309.021 105.075 307.969 101.786 309.384C104.731 304.802 107.616 303.996 107.616 303.996C110.176 302.694 112.48 304.007 112.762 306.929C113.044 309.85 111.235 312.892 108.637 314.575C115.565 311.259 115.232 304.079 115.232 304.079C115.333 295.806 105.85 295.491 100.084 307.578C95.7583 316.649 91.294 315.405 91.294 315.405C91.294 315.405 91.4587 315.568 91.6569 315.651Z" fill="#1C2B59" style="fill:#1C2B59;fill:color(display-p3 0.1098 0.1686 0.3490);fill-opacity:1;"/>
<path d="M92.8921 314.637C92.8921 314.637 99.4463 311.108 99.3973 302.154C99.3665 296.498 100.477 293.139 103.111 289.914C103.111 289.914 94.1912 293.634 95.288 302.466C96.307 310.677 94.9846 312.29 92.8921 314.637Z" fill="#005BAB" style="fill:#005BAB;fill:color(display-p3 0.0000 0.3569 0.6706);fill-opacity:1;"/>
<path d="M93.5758 312.536C93.5758 312.536 95.53 309.512 94.4113 303.279C93.7293 299.477 94.1779 297.071 95.6536 294.426C95.6536 294.426 91.3546 297.761 93.0604 304.021C93.7069 306.393 94.4515 309.848 93.5749 312.536L93.5758 312.536Z" fill="#008BD5" style="fill:#008BD5;fill:color(display-p3 0.0000 0.5451 0.8353);fill-opacity:1;"/>
<path d="M100.226 304.576C100.226 304.576 100.742 303.159 100.708 299.812C100.654 294.399 104.835 291.466 104.835 291.466C104.835 291.466 102.614 295.043 102.698 298.51C102.79 302.378 100.225 304.576 100.225 304.576L100.226 304.576Z" fill="#C8C9CA" style="fill:#C8C9CA;fill:color(display-p3 0.7843 0.7882 0.7922);fill-opacity:1;"/>
</g>
</svg>
