<svg width="405" height="405" viewBox="0 0 405 405" fill="none" xmlns="http://www.w3.org/2000/svg">
<g clip-path="url(#clip0_5_3773)">
<mask id="mask0_5_3773" style="mask-type:luminance" maskUnits="userSpaceOnUse" x="20" y="70" width="373" height="335">
<path d="M392.007 70.6699H20.655V405H392.007V70.6699Z" fill="white" style="fill:white;fill-opacity:1;"/>
</mask>
<g mask="url(#mask0_5_3773)">
<path d="M228.801 285.891C250.629 310.082 284.183 278.376 279.659 245.237C275.864 217.426 268.022 198.161 263.347 160.083C260.256 134.874 239.709 95.9416 199.633 106.096H201.656C164.772 97.789 140.543 131.996 137.942 160.083C134.398 198.287 127.273 209.245 121.63 245.237C116.339 279.017 156.679 308.498 178.508 284.307" fill="#1A6DCC" style="fill:#1A6DCC;fill:color(display-p3 0.1020 0.4275 0.8000);fill-opacity:1;"/>
<path d="M228.801 285.891C250.629 310.082 284.183 278.376 279.659 245.237C275.864 217.426 268.022 198.161 263.347 160.083C260.256 134.874 239.709 95.9416 199.633 106.096H201.656C164.772 97.789 140.543 131.996 137.942 160.083C134.398 198.287 127.273 209.245 121.63 245.237C116.339 279.017 156.679 308.498 178.508 284.307" stroke="#1F2C5C" style="stroke:#1F2C5C;stroke:color(display-p3 0.1216 0.1725 0.3608);stroke-opacity:1;" stroke-width="5.02676" stroke-linecap="round" stroke-linejoin="round"/>
<path d="M172.099 243.615V276.553L142.051 292.852C143.723 301.775 173.77 336.371 200.035 336.371C224.39 336.371 260.62 307.329 267.318 294.247L229.467 276.942V241.479L172.099 243.628V243.615Z" fill="white" stroke="#1F2C5C" style="fill:white;fill-opacity:1;stroke:#1F2C5C;stroke:color(display-p3 0.1216 0.1725 0.3608);stroke-opacity:1;" stroke-width="5.02676" stroke-linecap="round" stroke-linejoin="round"/>
<g style="mix-blend-mode:darken" opacity="0.2">
<path d="M171.207 250.301L172.803 275.636L152.042 290.251L160.487 299.375L231.101 260.43L231.817 245.111L171.207 250.301Z" fill="#1A6DCC" style="fill:#1A6DCC;fill:color(display-p3 0.1020 0.4275 0.8000);fill-opacity:1;"/>
</g>
<path d="M107.178 417.931C100.291 371.622 88.3404 325.803 116.943 310.572C139.5 298.545 134.775 293.079 134.775 293.079C139.802 299.01 202.41 325.313 202.41 325.313C202.41 325.313 270.284 296.396 273.061 295.265C273.049 295.265 297.881 301.775 302.832 333.77C306.967 360.513 302.229 417.491 302.229 417.491L107.178 417.918V417.931Z" fill="#1A6DCC" stroke="#1F2C5C" style="fill:#1A6DCC;fill:color(display-p3 0.1020 0.4275 0.8000);fill-opacity:1;stroke:#1F2C5C;stroke:color(display-p3 0.1216 0.1725 0.3608);stroke-opacity:1;" stroke-width="5.02676" stroke-linecap="round" stroke-linejoin="round"/>
<path d="M242.285 282.472L233.237 415.882H302.242C302.242 415.882 305.849 355.812 304.554 343.371C303.26 330.93 298.095 306.927 280.463 298.042C262.819 289.157 242.285 282.472 242.285 282.472Z" fill="white" stroke="#1F2C5C" style="fill:white;fill-opacity:1;stroke:#1F2C5C;stroke:color(display-p3 0.1216 0.1725 0.3608);stroke-opacity:1;" stroke-width="5.02676" stroke-linecap="round" stroke-linejoin="round"/>
<path d="M160.236 282.472L169.284 415.882H100.279C100.279 415.882 96.6722 355.812 97.9666 343.371C99.261 330.93 104.426 306.927 122.057 298.042C139.701 289.157 160.236 282.472 160.236 282.472Z" fill="white" stroke="#1F2C5C" style="fill:white;fill-opacity:1;stroke:#1F2C5C;stroke:color(display-p3 0.1216 0.1725 0.3608);stroke-opacity:1;" stroke-width="5.02676" stroke-linecap="round" stroke-linejoin="round"/>
<path d="M152.771 200.574C150.559 192.858 138.156 193.335 139.387 207.234C142.579 220.681 153.751 215.415 153.751 215.415C153.437 214.548 161.957 266.035 203.152 266.035C238.653 266.035 247.689 213.744 247.689 213.744C247.701 213.367 247.714 214.121 247.727 213.744C250.29 217.288 261.751 217.639 261.751 204.884C261.06 193.184 249.498 193.863 247.902 201.026C247.99 170.514 242.335 134.585 203.215 134.283C162.422 133.982 153.5 169.395 152.758 200.574H152.771Z" fill="white" stroke="#1F2C5C" style="fill:white;fill-opacity:1;stroke:#1F2C5C;stroke:color(display-p3 0.1216 0.1725 0.3608);stroke-opacity:1;" stroke-width="5.02676" stroke-linecap="round" stroke-linejoin="round"/>
<path d="M200.437 248.265C200.437 248.265 202.662 250 205.64 248.265Z" fill="white" style="fill:white;fill-opacity:1;"/>
<path d="M200.437 248.265C200.437 248.265 202.662 250 205.64 248.265" stroke="#1F2C5C" style="stroke:#1F2C5C;stroke:color(display-p3 0.1216 0.1725 0.3608);stroke-opacity:1;" stroke-width="3.77007" stroke-linecap="round" stroke-linejoin="round"/>
<path d="M186.211 231.048C195.838 246.958 212.791 242.346 218.194 230.546C218.194 230.546 210.126 232.908 202.36 232.908C194.594 232.908 186.199 231.048 186.199 231.048H186.211Z" fill="white" stroke="#1F2C5C" style="fill:white;fill-opacity:1;stroke:#1F2C5C;stroke:color(display-p3 0.1216 0.1725 0.3608);stroke-opacity:1;" stroke-width="5.02676" stroke-linecap="round" stroke-linejoin="round"/>
<path d="M185.545 166.09C182.831 158.763 171.986 160.02 169.058 167.925" stroke="#1F2C5C" style="stroke:#1F2C5C;stroke:color(display-p3 0.1216 0.1725 0.3608);stroke-opacity:1;" stroke-width="3.77007" stroke-linecap="round" stroke-linejoin="round"/>
<path d="M231.264 168.491C228.989 161.152 218.747 158.739 214.927 166.379" stroke="#1F2C5C" style="stroke:#1F2C5C;stroke:color(display-p3 0.1216 0.1725 0.3608);stroke-opacity:1;" stroke-width="3.77007" stroke-linecap="round" stroke-linejoin="round"/>
<path d="M220.909 195.07C223.15 195.07 224.968 193.252 224.968 191.011C224.968 188.769 223.15 186.951 220.909 186.951C218.667 186.951 216.85 188.769 216.85 191.011C216.85 193.252 218.667 195.07 220.909 195.07Z" fill="#1F2C5C" style="fill:#1F2C5C;fill:color(display-p3 0.1216 0.1725 0.3608);fill-opacity:1;"/>
<path d="M180.167 195.12C182.409 195.12 184.226 193.302 184.226 191.061C184.226 188.819 182.409 187.001 180.167 187.001C177.925 187.001 176.108 188.819 176.108 191.061C176.108 193.302 177.925 195.12 180.167 195.12Z" fill="#1F2C5C" style="fill:#1F2C5C;fill:color(display-p3 0.1216 0.1725 0.3608);fill-opacity:1;"/>
<path d="M250.705 158.676C252.188 161.642 251.987 164.243 251.987 164.243Z" fill="#1A6DCC" style="fill:#1A6DCC;fill:color(display-p3 0.1020 0.4275 0.8000);fill-opacity:1;"/>
<path d="M250.705 158.676C252.188 161.642 251.987 164.243 251.987 164.243" stroke="#1F2C5C" style="stroke:#1F2C5C;stroke:color(display-p3 0.1216 0.1725 0.3608);stroke-opacity:1;" stroke-width="3.77007" stroke-linecap="round" stroke-linejoin="round"/>
<path d="M255.443 156.602C256.926 159.568 256.724 162.169 256.724 162.169Z" fill="#1A6DCC" style="fill:#1A6DCC;fill:color(display-p3 0.1020 0.4275 0.8000);fill-opacity:1;"/>
<path d="M255.443 156.602C256.926 159.568 256.724 162.169 256.724 162.169" stroke="#1F2C5C" style="stroke:#1F2C5C;stroke:color(display-p3 0.1216 0.1725 0.3608);stroke-opacity:1;" stroke-width="3.77007" stroke-linecap="round" stroke-linejoin="round"/>
<path d="M268.776 240.977C273.25 273.826 255.342 280.047 255.342 280.047Z" fill="#1A6DCC" style="fill:#1A6DCC;fill:color(display-p3 0.1020 0.4275 0.8000);fill-opacity:1;"/>
<path d="M268.776 240.977C273.25 273.826 255.342 280.047 255.342 280.047" stroke="#1F2C5C" style="stroke:#1F2C5C;stroke:color(display-p3 0.1216 0.1725 0.3608);stroke-opacity:1;" stroke-width="3.77007" stroke-linecap="round" stroke-linejoin="round"/>
<path d="M262.053 252.425C262.304 270.848 248.367 276.076 248.367 276.076Z" fill="#1A6DCC" style="fill:#1A6DCC;fill:color(display-p3 0.1020 0.4275 0.8000);fill-opacity:1;"/>
<path d="M262.053 252.425C262.304 270.848 248.367 276.076 248.367 276.076" stroke="#1F2C5C" style="stroke:#1F2C5C;stroke:color(display-p3 0.1216 0.1725 0.3608);stroke-opacity:1;" stroke-width="3.77007" stroke-linecap="round" stroke-linejoin="round"/>
<path d="M134.649 246.469C132.438 264.754 145.746 271.439 145.746 271.439" stroke="#1F2C5C" style="stroke:#1F2C5C;stroke:color(display-p3 0.1216 0.1725 0.3608);stroke-opacity:1;" stroke-width="3.77007" stroke-linecap="round" stroke-linejoin="round"/>
<path d="M141.637 248.932C140.242 260.431 148.611 264.628 148.611 264.628" stroke="#1F2C5C" style="stroke:#1F2C5C;stroke:color(display-p3 0.1216 0.1725 0.3608);stroke-opacity:1;" stroke-width="3.77007" stroke-linecap="round" stroke-linejoin="round"/>
<path d="M146.186 233.386C150.204 233.386 153.462 228.108 153.462 221.598C153.462 215.088 150.204 209.81 146.186 209.81C142.167 209.81 138.91 215.088 138.91 221.598C138.91 228.108 142.167 233.386 146.186 233.386Z" fill="#DECF00" style="fill:#DECF00;fill:color(display-p3 0.8706 0.8118 0.0000);fill-opacity:1;"/>
<path d="M255.606 233.386C259.625 233.386 262.882 228.108 262.882 221.598C262.882 215.088 259.625 209.81 255.606 209.81C251.587 209.81 248.33 215.088 248.33 221.598C248.33 228.108 251.587 233.386 255.606 233.386Z" fill="#DECF00" style="fill:#DECF00;fill:color(display-p3 0.8706 0.8118 0.0000);fill-opacity:1;"/>
<path d="M174.587 124.958C172.589 130.94 175.58 139.109 180.205 141.547" stroke="#1F2C5C" style="stroke:#1F2C5C;stroke:color(display-p3 0.1216 0.1725 0.3608);stroke-opacity:1;" stroke-width="5.02676" stroke-linecap="round" stroke-linejoin="round"/>
<path d="M160.537 185.669C160.299 194.202 165.903 204.922 177.113 204.922C188.323 204.922 192.709 198.827 192.96 184.94C191.502 176.168 164.207 173.24 160.55 185.669H160.537Z" stroke="#1F2C5C" style="stroke:#1F2C5C;stroke:color(display-p3 0.1216 0.1725 0.3608);stroke-opacity:1;" stroke-width="5.02676" stroke-linecap="round" stroke-linejoin="round"/>
<path d="M239.759 185.669C239.998 194.202 234.393 204.922 223.183 204.922C211.974 204.922 207.588 198.827 207.336 184.94C208.794 176.168 236.09 173.24 239.747 185.669H239.759Z" stroke="#1F2C5C" style="stroke:#1F2C5C;stroke:color(display-p3 0.1216 0.1725 0.3608);stroke-opacity:1;" stroke-width="5.02676" stroke-linecap="round" stroke-linejoin="round"/>
<path d="M192.583 183.596C197.949 179.939 204.647 181.284 207.94 183.231" stroke="#1F2C5C" style="stroke:#1F2C5C;stroke:color(display-p3 0.1216 0.1725 0.3608);stroke-opacity:1;" stroke-width="5.02676" stroke-linecap="round" stroke-linejoin="round"/>
<path d="M202.021 197.18L202.171 224.174L193.928 213.115L202.021 197.18Z" fill="white" stroke="#1F2C5C" style="fill:white;fill-opacity:1;stroke:#1F2C5C;stroke:color(display-p3 0.1216 0.1725 0.3608);stroke-opacity:1;" stroke-width="5.02676" stroke-linecap="round" stroke-linejoin="round"/>
</g>
</g>
<defs>
<clipPath id="clip0_5_3773">
<rect width="405" height="405" fill="white" style="fill:white;fill-opacity:1;"/>
</clipPath>
</defs>
</svg>
