<svg width="405" height="405" viewBox="0 0 405 405" fill="none" xmlns="http://www.w3.org/2000/svg">
<g clip-path="url(#clip0_61_32132)">
<mask id="mask0_61_32132" style="mask-type:luminance" maskUnits="userSpaceOnUse" x="8" y="54" width="373" height="352">
<path d="M379.634 54.9736V404.372H9.53809V54.9736H379.634Z" fill="white" stroke="white" style="fill:white;fill-opacity:1;stroke:white;stroke-opacity:1;" stroke-width="1.25669"/>
</mask>
<g mask="url(#mask0_61_32132)">
<path d="M59.0269 426.1C58.097 374.513 69.558 303.045 94.3651 289.385C119.185 275.737 158.142 260.116 158.142 260.116H238.47C273.217 274.38 311.22 283.805 318.22 306.651C322.291 319.91 333.878 368.782 335.813 427.105L59.0269 426.1Z" fill="white" stroke="#1F2C5C" style="fill:white;fill-opacity:1;stroke:#1F2C5C;stroke:color(display-p3 0.1216 0.1725 0.3608);stroke-opacity:1;" stroke-width="5.02676" stroke-linecap="round" stroke-linejoin="round"/>
<path d="M158.833 222.152V254.486L148.365 265.344C150.69 275.347 181.63 287.06 197.69 287.06C213.751 287.06 242.667 280.625 251.979 265.96L238.646 255.177V219.739L158.846 222.139L158.833 222.152Z" fill="white" stroke="#1F2C5C" style="fill:white;fill-opacity:1;stroke:#1F2C5C;stroke:color(display-p3 0.1216 0.1725 0.3608);stroke-opacity:1;" stroke-width="5.02676" stroke-linecap="round" stroke-linejoin="round"/>
<g style="mix-blend-mode:darken" opacity="0.2">
<path d="M235.196 238.639L159.806 275.406L149.388 266.562L157.632 257.808L157.803 257.625L157.802 257.374L157.679 227.641L235.998 222.547L235.196 238.639Z" fill="#1A6DCC" style="fill:#1A6DCC;fill:color(display-p3 0.1020 0.4275 0.8000);fill-opacity:1;"/>
<path d="M235.196 238.639L159.806 275.406L149.388 266.562L157.632 257.808L157.803 257.625L157.802 257.374L157.679 227.641L235.998 222.547L235.196 238.639Z" stroke="#1F2C5C" style="stroke:#1F2C5C;stroke:color(display-p3 0.1216 0.1725 0.3608);stroke-opacity:1;" stroke-width="1.25669"/>
</g>
<path d="M151.042 166.58C146.153 164.017 135.685 163.288 135.685 179.11C135.685 194.931 153.141 195.396 153.141 195.396C152.676 209.358 158.255 232.858 177.106 242.862C191.532 251.47 198.746 249.56 202.466 249.56C206.185 249.56 222.045 248.994 234.612 229.679C243.459 217.577 242.253 195.861 242.253 195.861C253.186 194.693 259.708 190.508 260.173 177.25C260.173 165.852 246.915 164.218 246.915 164.218C247.619 146.536 239.701 110.708 200.845 110.708C161.988 110.708 151.758 135.402 151.054 166.58H151.042Z" fill="white" stroke="#1F2C5C" style="fill:white;fill-opacity:1;stroke:#1F2C5C;stroke:color(display-p3 0.1216 0.1725 0.3608);stroke-opacity:1;" stroke-width="5.02676" stroke-linecap="round" stroke-linejoin="round"/>
<path d="M152.236 164.482C151.331 162.66 145.877 162.233 145.877 162.233C145.877 162.233 146.078 145.795 145.512 141.711C144.331 133.065 146.694 115.785 149.371 111.94C152.035 108.094 156.785 105.217 158.268 102.653C159.751 100.089 160.932 95.6155 166.575 93.6928C172.205 91.7701 176.653 90.1741 180.21 86.3286C183.766 82.4831 187.926 77.3684 193.556 76.0866C199.186 74.8047 205.117 74.8047 208.975 78.3235C212.833 81.8422 217.571 84.0791 220.537 84.4059C223.503 84.7326 229.598 86.115 232.45 84.6572C231.395 87.0952 228.391 88.3896 228.391 88.3896C230.201 90.8275 234.26 90.9909 236.057 92.7754C237.854 94.5599 240.267 102.188 242.969 104.626C245.671 107.064 250.006 111.161 250.936 117.281C253.211 132.273 251.439 165.676 251.439 165.676C251.439 165.676 245.746 162.095 243.66 165.852C241.411 152.054 241.775 149.414 237.867 142.754C233.958 136.106 231.998 129.446 226.896 128.151C221.794 126.857 213.06 121.667 210.961 119.392C208.862 117.118 196.974 118.902 192.173 113.385C184.809 116.791 181.203 115.987 173.084 122.144C164.966 128.315 157.451 135.289 155.189 146.323C152.927 157.357 152.374 151.689 152.236 164.47V164.482Z" fill="#1A6DCC" stroke="#1F2C5C" style="fill:#1A6DCC;fill:color(display-p3 0.1020 0.4275 0.8000);fill-opacity:1;stroke:#1F2C5C;stroke:color(display-p3 0.1216 0.1725 0.3608);stroke-opacity:1;" stroke-width="5.02676" stroke-linecap="round" stroke-linejoin="round"/>
<path d="M128.761 272.608L148.051 427.583L57.0038 425.497C56.3126 366.659 73.3156 298.496 91.9775 289.385C110.652 280.274 128.761 272.608 128.761 272.608Z" fill="#1A6DCC" stroke="#1F2C5C" style="fill:#1A6DCC;fill:color(display-p3 0.1020 0.4275 0.8000);fill-opacity:1;stroke:#1F2C5C;stroke:color(display-p3 0.1216 0.1725 0.3608);stroke-opacity:1;" stroke-width="5.02676" stroke-linecap="round" stroke-linejoin="round"/>
<path d="M265.652 270.647L245.872 427.583L342.989 425.497C343.68 366.659 326.677 298.496 308.015 289.385C289.341 280.274 265.652 270.647 265.652 270.647Z" fill="#1A6DCC" stroke="#1F2C5C" style="fill:#1A6DCC;fill:color(display-p3 0.1020 0.4275 0.8000);fill-opacity:1;stroke:#1F2C5C;stroke:color(display-p3 0.1216 0.1725 0.3608);stroke-opacity:1;" stroke-width="5.02676" stroke-linecap="round" stroke-linejoin="round"/>
<path d="M149.647 165.864H243.673" stroke="#1F2C5C" style="stroke:#1F2C5C;stroke:color(display-p3 0.1216 0.1725 0.3608);stroke-opacity:1;" stroke-width="5.02676" stroke-linecap="round" stroke-linejoin="round"/>
<path d="M174.58 184.174C184.256 184.174 191.508 178.444 191.508 167.448C191.508 159.392 185.061 154.29 174.982 154.29C164.903 154.29 158.457 159.392 158.457 167.448C158.457 178.444 165.708 184.174 175.384 184.174H174.58Z" fill="white" stroke="#1F2C5C" style="fill:white;fill-opacity:1;stroke:#1F2C5C;stroke:color(display-p3 0.1216 0.1725 0.3608);stroke-opacity:1;" stroke-width="5.02676" stroke-linecap="round" stroke-linejoin="round"/>
<path d="M219.469 184.174C209.792 184.174 202.541 178.444 202.541 167.448C202.541 159.392 208.988 154.29 219.067 154.29C229.145 154.29 235.592 159.392 235.592 167.448C235.592 178.444 228.341 184.174 218.665 184.174H219.469Z" fill="white" stroke="#1F2C5C" style="fill:white;fill-opacity:1;stroke:#1F2C5C;stroke:color(display-p3 0.1216 0.1725 0.3608);stroke-opacity:1;" stroke-width="5.02676" stroke-linecap="round" stroke-linejoin="round"/>
<path d="M196.647 230.835C196.647 230.835 198.872 232.57 201.85 230.835Z" fill="white" style="fill:white;fill-opacity:1;"/>
<path d="M196.647 230.835C196.647 230.835 198.872 232.57 201.85 230.835" stroke="#1F2C5C" style="stroke:#1F2C5C;stroke:color(display-p3 0.1216 0.1725 0.3608);stroke-opacity:1;" stroke-width="3.77007" stroke-linecap="round" stroke-linejoin="round"/>
<path d="M182.962 214.423C191.721 227.932 209.44 225.545 215.058 214.083C215.058 214.083 205.846 215.843 198.721 215.843C191.595 215.843 182.962 214.41 182.962 214.41V214.423Z" fill="white" stroke="#1F2C5C" style="fill:white;fill-opacity:1;stroke:#1F2C5C;stroke:color(display-p3 0.1216 0.1725 0.3608);stroke-opacity:1;" stroke-width="5.02676" stroke-linecap="round" stroke-linejoin="round"/>
<path d="M176.729 165.612C178.721 165.612 180.335 167.228 180.335 169.22C180.335 171.211 178.721 172.826 176.729 172.826C174.737 172.826 173.122 171.212 173.122 169.22C173.122 167.228 174.737 165.612 176.729 165.612Z" fill="#1F2C5C" stroke="#1F2C5C" style="fill:#1F2C5C;fill:color(display-p3 0.1216 0.1725 0.3608);fill-opacity:1;stroke:#1F2C5C;stroke:color(display-p3 0.1216 0.1725 0.3608);stroke-opacity:1;" stroke-width="1.25669"/>
<path d="M218.187 165.449C220.179 165.449 221.794 167.065 221.794 169.057C221.794 171.048 220.179 172.663 218.187 172.663C216.195 172.663 214.58 171.048 214.58 169.057C214.58 167.065 216.195 165.449 218.187 165.449Z" fill="#1F2C5C" stroke="#1F2C5C" style="fill:#1F2C5C;fill:color(display-p3 0.1216 0.1725 0.3608);fill-opacity:1;stroke:#1F2C5C;stroke:color(display-p3 0.1216 0.1725 0.3608);stroke-opacity:1;" stroke-width="1.25669"/>
<path d="M187.159 146.599C181.63 142.98 173.311 141.749 166.022 145.808" stroke="#1F2C5C" style="stroke:#1F2C5C;stroke:color(display-p3 0.1216 0.1725 0.3608);stroke-opacity:1;" stroke-width="5.02676" stroke-linecap="round" stroke-linejoin="round"/>
<path d="M208.096 146.938C213.713 143.445 222.057 142.427 229.246 146.649" stroke="#1F2C5C" style="stroke:#1F2C5C;stroke:color(display-p3 0.1216 0.1725 0.3608);stroke-opacity:1;" stroke-width="5.02676" stroke-linecap="round" stroke-linejoin="round"/>
<path d="M237 122.571C239.224 124.758 240.204 127.636 240.204 127.636" stroke="#1F2C5C" style="stroke:#1F2C5C;stroke:color(display-p3 0.1216 0.1725 0.3608);stroke-opacity:1;" stroke-width="2.51338" stroke-linecap="round" stroke-linejoin="round"/>
<path d="M240.28 120.9C242.504 123.087 243.484 125.964 243.484 125.964" stroke="#1F2C5C" style="stroke:#1F2C5C;stroke:color(display-p3 0.1216 0.1725 0.3608);stroke-opacity:1;" stroke-width="2.51338" stroke-linecap="round" stroke-linejoin="round"/>
<path d="M168.259 106.134C170.244 103.721 173.009 102.477 173.009 102.477" stroke="#1F2C5C" style="stroke:#1F2C5C;stroke:color(display-p3 0.1216 0.1725 0.3608);stroke-opacity:1;" stroke-width="2.51338" stroke-linecap="round" stroke-linejoin="round"/>
<path d="M166.311 103.017C168.296 100.604 171.061 99.3599 171.061 99.3599" stroke="#1F2C5C" style="stroke:#1F2C5C;stroke:color(display-p3 0.1216 0.1725 0.3608);stroke-opacity:1;" stroke-width="2.51338" stroke-linecap="round" stroke-linejoin="round"/>
<path d="M198.557 176.961L198.696 204.696L190.464 196.151L198.557 176.961Z" fill="white" stroke="#1F2C5C" style="fill:white;fill-opacity:1;stroke:#1F2C5C;stroke:color(display-p3 0.1216 0.1725 0.3608);stroke-opacity:1;" stroke-width="5.02676" stroke-linecap="round" stroke-linejoin="round"/>
</g>
</g>
<defs>
<clipPath id="clip0_61_32132">
<rect width="405" height="405" fill="white" style="fill:white;fill-opacity:1;"/>
</clipPath>
</defs>
</svg>
