<svg width="405" height="405" viewBox="0 0 405 405" fill="none" xmlns="http://www.w3.org/2000/svg">
<mask id="mask0_61_31903" style="mask-type:luminance" maskUnits="userSpaceOnUse" x="27" y="56" width="350" height="349">
<path d="M376.211 56.7681H27.979V405H376.211V56.7681Z" fill="white" style="fill:white;fill-opacity:1;"/>
</mask>
<g mask="url(#mask0_61_31903)">
<path d="M62.0908 426.239C72.6598 363.028 80.9504 302.298 107.442 288.539C133.935 274.793 175.54 259.06 175.54 259.06H261.281C298.368 273.426 338.935 282.919 346.415 305.93C350.757 319.284 360.769 353.662 369.882 431.53L62.0908 426.227V426.239Z" fill="white" stroke="#1F2C5C" style="fill:white;fill-opacity:1;stroke:#1F2C5C;stroke:color(display-p3 0.1216 0.1725 0.3608);stroke-opacity:1;" stroke-width="5.06298" stroke-linecap="round" stroke-linejoin="round"/>
<path d="M178.502 214.176V253.389L167.958 264.325C170.3 274.4 201.462 286.197 217.639 286.197C233.815 286.197 262.94 279.716 272.319 264.945L258.889 254.085V218.391L178.514 214.176H178.502Z" fill="white" stroke="#1F2C5C" style="fill:white;fill-opacity:1;stroke:#1F2C5C;stroke:color(display-p3 0.1216 0.1725 0.3608);stroke-opacity:1;" stroke-width="5.06298" stroke-linecap="round" stroke-linejoin="round"/>
<path opacity="0.2" d="M180.603 225.758L180.793 276.843L255.661 237.833L256.472 220.543L180.603 225.758Z" fill="#1A6DCC" style="fill:#1A6DCC;fill:color(display-p3 0.1020 0.4275 0.8000);fill-opacity:1;"/>
<path d="M201.399 288.969L209.31 312.119L227.499 311.866L234.194 290.26L218.271 274.742L201.399 288.969Z" fill="#1A6DCC" stroke="#1F2C5C" style="fill:#1A6DCC;fill:color(display-p3 0.1020 0.4275 0.8000);fill-opacity:1;stroke:#1F2C5C;stroke:color(display-p3 0.1216 0.1725 0.3608);stroke-opacity:1;" stroke-width="5.69585" stroke-linecap="round" stroke-linejoin="round"/>
<path d="M209.31 312.12L192.286 431.163L244.004 431.252L227.499 311.866L209.31 312.12Z" fill="#1A6DCC" stroke="#1F2C5C" style="fill:#1A6DCC;fill:color(display-p3 0.1020 0.4275 0.8000);fill-opacity:1;stroke:#1F2C5C;stroke:color(display-p3 0.1216 0.1725 0.3608);stroke-opacity:1;" stroke-width="5.69585" stroke-linecap="round" stroke-linejoin="round"/>
<path d="M163.262 264.325L176.666 245.706L218.398 274.109L192.64 302.133L163.262 264.325Z" fill="white" stroke="#1F2C5C" style="fill:white;fill-opacity:1;stroke:#1F2C5C;stroke:color(display-p3 0.1216 0.1725 0.3608);stroke-opacity:1;" stroke-width="5.06298" stroke-linecap="round" stroke-linejoin="round"/>
<path d="M218.79 273.97L261.193 245.858L274.66 263.54L244.346 302.601L218.79 273.97Z" fill="white" stroke="#1F2C5C" style="fill:white;fill-opacity:1;stroke:#1F2C5C;stroke:color(display-p3 0.1216 0.1725 0.3608);stroke-opacity:1;" stroke-width="5.06298" stroke-linecap="round" stroke-linejoin="round"/>
<path d="M66.0273 312.195C69.8752 305.702 69.1537 287.171 69.1537 282.615C69.1537 278.058 67.7108 232.807 67.7108 232.807C67.7108 232.807 67.7108 225.352 73.7231 223.188C79.7354 221.023 106.202 215.252 112.695 216.454C119.189 217.657 121.113 226.074 117.986 231.365C124.72 232.807 127.859 244.364 120.632 247.971C132.416 255.186 125.922 264.578 120.859 264.325C125.922 273.944 120.378 287.424 108.341 284.058C108.822 305.702 97.7596 299.221 94.6332 314.372" fill="white" style="fill:white;fill-opacity:1;"/>
<path d="M66.0273 312.195C69.8752 305.702 69.1537 287.171 69.1537 282.615C69.1537 278.058 67.7108 232.807 67.7108 232.807C67.7108 232.807 67.7108 225.352 73.7231 223.188C79.7354 221.023 106.202 215.252 112.695 216.454C119.189 217.657 121.113 226.074 117.986 231.365C124.72 232.807 127.859 244.364 120.632 247.971C132.416 255.186 125.922 264.578 120.859 264.325C125.922 273.944 120.378 287.424 108.341 284.058C108.822 305.702 97.7596 299.221 94.6332 314.372" stroke="#1F2C5C" style="stroke:#1F2C5C;stroke:color(display-p3 0.1216 0.1725 0.3608);stroke-opacity:1;" stroke-width="1.26575" stroke-miterlimit="10"/>
<path d="M112.253 272.957C112.658 272.919 107.341 277.299 107.341 277.299C107.341 277.299 107.05 284.551 112.177 284.551" fill="white" style="fill:white;fill-opacity:1;"/>
<path d="M112.253 272.957C112.658 272.919 107.341 277.299 107.341 277.299C107.341 277.299 107.05 284.551 112.177 284.551" stroke="#1F2C5C" style="stroke:#1F2C5C;stroke:color(display-p3 0.1216 0.1725 0.3608);stroke-opacity:1;" stroke-width="1.26575" stroke-miterlimit="10"/>
<path d="M120.48 223.834C129.289 220.467 133.314 223.669 133.314 229.441C133.314 235.213 124.657 239.706 124.657 239.706" fill="white" style="fill:white;fill-opacity:1;"/>
<path d="M120.48 223.834C129.289 220.467 133.314 223.669 133.314 229.441C133.314 235.213 124.657 239.706 124.657 239.706" stroke="#1F2C5C" style="stroke:#1F2C5C;stroke:color(display-p3 0.1216 0.1725 0.3608);stroke-opacity:1;" stroke-width="1.26575" stroke-miterlimit="10"/>
<path d="M93.7724 416.417L106.544 315.144L53.6989 311.183L35.6494 428.302" fill="white" style="fill:white;fill-opacity:1;"/>
<path d="M93.7724 416.417L106.544 315.144L53.6989 311.183L35.6494 428.302" stroke="#1F2C5C" style="stroke:#1F2C5C;stroke:color(display-p3 0.1216 0.1725 0.3608);stroke-opacity:1;" stroke-width="1.26575" stroke-miterlimit="10"/>
<path d="M66.0273 312.195C69.8752 305.702 69.1537 287.171 69.1537 282.615C69.1537 278.058 67.7108 232.807 67.7108 232.807C67.7108 232.807 67.7108 225.352 73.7231 223.188C79.7354 221.023 106.202 215.252 112.695 216.454C119.189 217.657 121.113 226.074 117.986 231.365C124.72 232.807 127.859 244.364 120.632 247.971C132.416 255.186 125.922 264.578 120.859 264.325C125.922 273.944 120.378 287.424 108.341 284.058C108.822 305.702 97.7596 299.221 94.6332 314.372" fill="white" style="fill:white;fill-opacity:1;"/>
<path d="M66.0273 312.195C69.8752 305.702 69.1537 287.171 69.1537 282.615C69.1537 278.058 67.7108 232.807 67.7108 232.807C67.7108 232.807 67.7108 225.352 73.7231 223.188C79.7354 221.023 106.202 215.252 112.695 216.454C119.189 217.657 121.113 226.074 117.986 231.365C124.72 232.807 127.859 244.364 120.632 247.971C132.416 255.186 125.922 264.578 120.859 264.325C125.922 273.944 120.378 287.424 108.341 284.058C108.822 305.702 97.7596 299.221 94.6332 314.372" stroke="#1F2C5C" style="stroke:#1F2C5C;stroke:color(display-p3 0.1216 0.1725 0.3608);stroke-opacity:1;" stroke-width="1.26575" stroke-miterlimit="10"/>
<path d="M66.0273 312.195C69.8752 305.702 69.1537 287.171 69.1537 282.615C69.1537 278.058 67.7108 232.807 67.7108 232.807C67.7108 232.807 67.7108 225.352 73.7231 223.188C79.7354 221.023 106.202 215.252 112.695 216.454C119.189 217.657 121.113 226.074 117.986 231.365C124.72 232.807 127.859 244.364 120.632 247.971C132.416 255.186 125.922 264.578 120.859 264.325C125.922 273.944 120.378 287.424 108.341 284.058C108.822 305.702 97.7596 299.221 94.6332 314.372" stroke="#1F2C5C" style="stroke:#1F2C5C;stroke:color(display-p3 0.1216 0.1725 0.3608);stroke-opacity:1;" stroke-width="5.06298" stroke-linecap="round" stroke-linejoin="round"/>
<path d="M88.0894 229.77L117.999 231.365" stroke="#1F2C5C" style="stroke:#1F2C5C;stroke:color(display-p3 0.1216 0.1725 0.3608);stroke-opacity:1;" stroke-width="5.06298" stroke-linecap="round" stroke-linejoin="round"/>
<path d="M91.2915 243.389L120.644 247.959" stroke="#1F2C5C" style="stroke:#1F2C5C;stroke:color(display-p3 0.1216 0.1725 0.3608);stroke-opacity:1;" stroke-width="5.06298" stroke-linecap="round" stroke-linejoin="round"/>
<path d="M97.5444 256.224L120.872 264.325" stroke="#1F2C5C" style="stroke:#1F2C5C;stroke:color(display-p3 0.1216 0.1725 0.3608);stroke-opacity:1;" stroke-width="5.06298" stroke-linecap="round" stroke-linejoin="round"/>
<path d="M112.253 272.957C112.658 272.919 107.341 277.299 107.341 277.299C107.341 277.299 107.05 284.551 112.177 284.551" fill="white" style="fill:white;fill-opacity:1;"/>
<path d="M112.253 272.957C112.658 272.919 107.341 277.299 107.341 277.299C107.341 277.299 107.05 284.551 112.177 284.551" stroke="#1F2C5C" style="stroke:#1F2C5C;stroke:color(display-p3 0.1216 0.1725 0.3608);stroke-opacity:1;" stroke-width="1.26575" stroke-miterlimit="10"/>
<path d="M112.253 272.957C112.658 272.919 107.341 277.299 107.341 277.299C107.341 277.299 107.05 284.551 112.177 284.551" stroke="#1F2C5C" style="stroke:#1F2C5C;stroke:color(display-p3 0.1216 0.1725 0.3608);stroke-opacity:1;" stroke-width="5.06298" stroke-linecap="round" stroke-linejoin="round"/>
<path d="M120.48 223.834C129.289 220.467 133.314 223.669 133.314 229.441C133.314 235.213 124.657 239.706 124.657 239.706" fill="white" style="fill:white;fill-opacity:1;"/>
<path d="M120.48 223.834C129.289 220.467 133.314 223.669 133.314 229.441C133.314 235.213 124.657 239.706 124.657 239.706" stroke="#1F2C5C" style="stroke:#1F2C5C;stroke:color(display-p3 0.1216 0.1725 0.3608);stroke-opacity:1;" stroke-width="1.26575" stroke-miterlimit="10"/>
<path d="M120.48 223.834C129.289 220.467 133.314 223.669 133.314 229.441C133.314 235.213 124.657 239.706 124.657 239.706" stroke="#1F2C5C" style="stroke:#1F2C5C;stroke:color(display-p3 0.1216 0.1725 0.3608);stroke-opacity:1;" stroke-width="5.06298" stroke-linecap="round" stroke-linejoin="round"/>
<path d="M93.7724 416.417L106.544 315.144L53.6989 311.183L35.6494 428.302" fill="white" style="fill:white;fill-opacity:1;"/>
<path d="M93.7724 416.417L106.544 315.144L53.6989 311.183L35.6494 428.302" stroke="#1F2C5C" style="stroke:#1F2C5C;stroke:color(display-p3 0.1216 0.1725 0.3608);stroke-opacity:1;" stroke-width="1.26575" stroke-miterlimit="10"/>
<path d="M93.7724 416.417L106.544 315.144L53.6989 311.183L35.6494 428.302" stroke="#1F2C5C" style="stroke:#1F2C5C;stroke:color(display-p3 0.1216 0.1725 0.3608);stroke-opacity:1;" stroke-width="5.06298" stroke-linecap="round" stroke-linejoin="round"/>
<path d="M66.0273 312.195C69.8752 305.702 69.1537 287.171 69.1537 282.615C69.1537 278.058 67.7108 232.807 67.7108 232.807C67.7108 232.807 67.7108 225.352 73.7231 223.188C79.7354 221.023 106.202 215.252 112.695 216.454C119.189 217.657 121.113 226.074 117.986 231.365C124.72 232.807 127.859 244.364 120.632 247.971C132.416 255.186 125.922 264.578 120.859 264.325C125.922 273.944 120.378 287.424 108.341 284.058C108.822 305.702 97.7596 299.221 94.6332 314.372" stroke="#1F2C5C" style="stroke:#1F2C5C;stroke:color(display-p3 0.1216 0.1725 0.3608);stroke-opacity:1;" stroke-width="5.06298" stroke-linecap="round" stroke-linejoin="round"/>
<path d="M88.0894 229.77L117.999 231.365" stroke="#1F2C5C" style="stroke:#1F2C5C;stroke:color(display-p3 0.1216 0.1725 0.3608);stroke-opacity:1;" stroke-width="5.06298" stroke-linecap="round" stroke-linejoin="round"/>
<path d="M91.2915 243.389L120.644 247.959" stroke="#1F2C5C" style="stroke:#1F2C5C;stroke:color(display-p3 0.1216 0.1725 0.3608);stroke-opacity:1;" stroke-width="5.06298" stroke-linecap="round" stroke-linejoin="round"/>
<path d="M97.5444 256.224L120.872 264.325" stroke="#1F2C5C" style="stroke:#1F2C5C;stroke:color(display-p3 0.1216 0.1725 0.3608);stroke-opacity:1;" stroke-width="5.06298" stroke-linecap="round" stroke-linejoin="round"/>
<path d="M112.253 272.957C112.658 272.919 107.341 277.299 107.341 277.299C107.341 277.299 107.05 284.551 112.177 284.551" stroke="#1F2C5C" style="stroke:#1F2C5C;stroke:color(display-p3 0.1216 0.1725 0.3608);stroke-opacity:1;" stroke-width="5.06298" stroke-linecap="round" stroke-linejoin="round"/>
<path d="M120.48 223.834C129.289 220.467 133.314 223.669 133.314 229.441C133.314 235.213 124.657 239.706 124.657 239.706" stroke="#1F2C5C" style="stroke:#1F2C5C;stroke:color(display-p3 0.1216 0.1725 0.3608);stroke-opacity:1;" stroke-width="5.06298" stroke-linecap="round" stroke-linejoin="round"/>
<path d="M93.7724 416.417L106.544 315.144L53.6989 311.183L35.6494 428.302" stroke="#1F2C5C" style="stroke:#1F2C5C;stroke:color(display-p3 0.1216 0.1725 0.3608);stroke-opacity:1;" stroke-width="5.06298" stroke-linecap="round" stroke-linejoin="round"/>
<path d="M168.262 159.711C163.25 157.078 152.491 156.331 152.491 172.584C152.491 188.836 170.414 189.304 170.414 189.304C169.933 203.645 175.667 227.77 195.02 238.048C209.829 246.883 217.234 244.921 221.069 244.921C224.904 244.921 241.169 244.339 254.079 224.504C263.155 212.075 261.927 189.785 261.927 189.785C273.154 188.595 279.85 184.292 280.318 170.672C280.318 158.964 266.699 157.293 266.699 157.293C267.142 145.94 271.192 123.384 259.13 109.132C251.89 100.588 234.359 100.727 219.385 100.727C202.817 100.727 185.362 99.512 177.527 108.208C166.49 120.447 168.667 141.003 168.249 159.724L168.262 159.711Z" fill="white" stroke="#1F2C5C" style="fill:white;fill-opacity:1;stroke:#1F2C5C;stroke:color(display-p3 0.1216 0.1725 0.3608);stroke-opacity:1;" stroke-width="5.06298" stroke-linecap="round" stroke-linejoin="round"/>
<path d="M162.857 91.4747C181.248 64.1599 216.145 60.9829 230.536 74.5138C252.852 68.6407 277.002 91.7279 278.711 121.081C279.673 137.611 274.635 160.293 274.635 160.293C272.281 158.99 264.028 164.002 264.028 164.002L263.003 157.205C260.269 138.231 250.94 134.358 237.372 120.675C229.853 136.421 201.538 147.876 188.564 155.749C188.564 155.749 202.247 141.611 196.032 133.194C195.412 139.801 181.096 154.256 168.958 159.711C164.503 157.521 161.313 157.99 157.87 159.584C156.997 159.99 154.908 161.584 153.946 164.002C153.946 164.002 138.998 126.916 162.857 91.4621V91.4747Z" fill="#1A6DCC" stroke="#1F2C5C" style="fill:#1A6DCC;fill:color(display-p3 0.1020 0.4275 0.8000);fill-opacity:1;stroke:#1F2C5C;stroke:color(display-p3 0.1216 0.1725 0.3608);stroke-opacity:1;" stroke-width="5.69585" stroke-linecap="round" stroke-linejoin="round"/>
<path d="M225.575 150.307C231.043 146.914 239.156 145.915 246.156 150.028Z" fill="#1A6DCC" style="fill:#1A6DCC;fill:color(display-p3 0.1020 0.4275 0.8000);fill-opacity:1;"/>
<path d="M225.575 150.307C231.043 146.914 239.156 145.915 246.156 150.028" stroke="#1F2C5C" style="stroke:#1F2C5C;stroke:color(display-p3 0.1216 0.1725 0.3608);stroke-opacity:1;" stroke-width="4.83515" stroke-linecap="round" stroke-linejoin="round"/>
<path d="M217.044 169.812L217.183 202.253L209.158 193.924L217.044 169.812Z" fill="white" stroke="#1F2C5C" style="fill:white;fill-opacity:1;stroke:#1F2C5C;stroke:color(display-p3 0.1216 0.1725 0.3608);stroke-opacity:1;" stroke-width="5.06298" stroke-linecap="round" stroke-linejoin="round"/>
<path d="M198.545 172.022C198.637 169.032 197.12 166.558 195.157 166.498C193.193 166.437 191.527 168.812 191.434 171.802C191.342 174.793 192.859 177.266 194.822 177.327C196.786 177.388 198.452 175.013 198.545 172.022Z" fill="#1F2C5C" style="fill:#1F2C5C;fill:color(display-p3 0.1216 0.1725 0.3608);fill-opacity:1;"/>
<path d="M241.828 172.017C241.921 169.027 240.404 166.553 238.44 166.492C236.477 166.432 234.811 168.807 234.718 171.797C234.626 174.788 236.142 177.261 238.106 177.322C240.069 177.383 241.736 175.008 241.828 172.017Z" fill="#1F2C5C" style="fill:#1F2C5C;fill:color(display-p3 0.1216 0.1725 0.3608);fill-opacity:1;"/>
<path d="M214.752 228.808C214.752 228.808 217.208 230.846 220.625 228.985Z" fill="white" style="fill:white;fill-opacity:1;"/>
<path d="M214.752 228.808C214.752 228.808 217.208 230.846 220.625 228.985" stroke="#1F2C5C" style="stroke:#1F2C5C;stroke:color(display-p3 0.1216 0.1725 0.3608);stroke-opacity:1;" stroke-width="3.79724" stroke-linecap="round" stroke-linejoin="round"/>
<path d="M200.88 210.265C209.322 213.29 228.65 212.366 234.726 210.265C228.663 225.441 209.512 228.238 200.88 210.265Z" fill="white" stroke="#1F2C5C" style="fill:white;fill-opacity:1;stroke:#1F2C5C;stroke:color(display-p3 0.1216 0.1725 0.3608);stroke-opacity:1;" stroke-width="5.06298" stroke-linecap="round" stroke-linejoin="round"/>
</g>
</svg>
