<svg width="405" height="405" viewBox="0 0 405 405" fill="none" xmlns="http://www.w3.org/2000/svg">
<mask id="mask0_3_3179" style="mask-type:luminance" maskUnits="userSpaceOnUse" x="63" y="62" width="271" height="344">
<path d="M333.859 62.4766H63.0417V405H333.859V62.4766Z" fill="white" style="fill:white;fill-opacity:1;"/>
</mask>
<g mask="url(#mask0_3_3179)">
<path d="M238.124 225.143C238.124 225.143 246.757 237.948 250.314 247.009C258.62 268.122 250.314 287.776 250.314 287.776C250.314 287.776 247.109 307.619 232.921 282.925C218.733 258.231 225.921 214.097 238.124 225.155V225.143Z" fill="#1A6DCC" stroke="#1F2C5C" style="fill:#1A6DCC;fill:color(display-p3 0.1020 0.4275 0.8000);fill-opacity:1;stroke:#1F2C5C;stroke:color(display-p3 0.1216 0.1725 0.3608);stroke-opacity:1;" stroke-width="5.02676" stroke-linecap="round" stroke-linejoin="round"/>
<path d="M248.203 196.214C263.647 182.616 270.697 181.473 265.696 140.781C262.391 113.85 238.727 75.5587 197.608 83.0863H199.77C160.36 74.2014 134.459 110.771 131.682 140.781C127.9 181.598 140.517 195.246 155.861 204.948" fill="#1A6DCC" style="fill:#1A6DCC;fill:color(display-p3 0.1020 0.4275 0.8000);fill-opacity:1;"/>
<path d="M248.203 196.214C263.647 182.616 270.697 181.473 265.696 140.781C262.391 113.85 238.727 75.5587 197.608 83.0863H199.77C160.36 74.2014 134.459 110.771 131.682 140.781C127.9 181.598 140.517 195.246 155.861 204.948" stroke="#1F2C5C" style="stroke:#1F2C5C;stroke:color(display-p3 0.1216 0.1725 0.3608);stroke-opacity:1;" stroke-width="5.02676" stroke-linecap="round" stroke-linejoin="round"/>
<path d="M169.106 230.043V265.231L136.998 282.648C138.782 292.187 170.891 329.146 198.953 329.146C224.979 329.146 263.698 298.106 270.848 284.131L230.408 265.633V227.743L169.106 230.031V230.043Z" fill="white" stroke="#1F2C5C" style="fill:white;fill-opacity:1;stroke:#1F2C5C;stroke:color(display-p3 0.1216 0.1725 0.3608);stroke-opacity:1;" stroke-width="5.02676" stroke-linecap="round" stroke-linejoin="round"/>
<g style="mix-blend-mode:darken" opacity="0.2">
<path d="M168.151 237.207L169.86 264.276L147.667 279.884L156.69 289.648L232.155 248.027L232.921 231.652L168.151 237.207Z" fill="#1A6DCC" style="fill:#1A6DCC;fill:color(display-p3 0.1020 0.4275 0.8000);fill-opacity:1;"/>
</g>
<path d="M99.7371 416.335C92.3729 366.847 79.6174 317.886 110.168 301.612C134.284 288.769 129.232 282.925 129.232 282.925C130.589 284.534 135.93 287.55 143.131 291.157C178.142 308.675 219.11 309.856 255.139 294.537C266.789 289.586 275.988 285.677 277.019 285.262C289.613 289.679 302.724 294.537 308.838 326.406C313.261 354.984 308.184 415.871 308.184 415.871L99.7497 416.335H99.7371Z" fill="#1A6DCC" stroke="#1F2C5C" style="fill:#1A6DCC;fill:color(display-p3 0.1020 0.4275 0.8000);fill-opacity:1;stroke:#1F2C5C;stroke:color(display-p3 0.1216 0.1725 0.3608);stroke-opacity:1;" stroke-width="5.02676" stroke-miterlimit="10"/>
<path d="M244.106 271.577L238.124 414.136H319.809C319.809 414.136 318.351 346.325 315.787 333.055C313.274 320.035 305.633 295.605 285.878 286.771C266.374 278.062 244.118 271.577 244.118 271.577H244.106Z" fill="white" stroke="#1F2C5C" style="fill:white;fill-opacity:1;stroke:#1F2C5C;stroke:color(display-p3 0.1216 0.1725 0.3608);stroke-opacity:1;" stroke-width="5.02676" stroke-linecap="round" stroke-linejoin="round"/>
<path d="M156.426 271.577L162.408 414.136H80.7233C80.7233 414.136 82.1811 346.325 84.7448 333.055C87.2581 320.035 94.8988 295.605 114.654 286.771C134.158 278.062 156.414 271.577 156.414 271.577H156.426Z" fill="white" stroke="#1F2C5C" style="fill:white;fill-opacity:1;stroke:#1F2C5C;stroke:color(display-p3 0.1216 0.1725 0.3608);stroke-opacity:1;" stroke-width="5.02676" stroke-linecap="round" stroke-linejoin="round"/>
<path d="M248.441 182.629C250.138 174.975 269.415 167.423 265.356 186.474C261.611 200.75 250.98 200.009 248.24 196.214C248.228 196.616 248.215 195.811 248.19 196.214C248.19 196.214 238.539 252.099 200.587 252.099C156.565 252.099 147.454 197.081 147.793 198.011C147.793 198.011 135.854 203.628 132.449 189.264C127.585 164.507 147.793 175.001 150.156 183.244C153.285 167.209 159.417 154.403 166.317 145.23C175.779 132.663 181.523 110.181 200.662 115.873C200.662 115.873 204.118 113.636 209.358 114.654C212.613 115.283 225.683 118.563 227.97 132.738C231.2 152.732 234.304 173.505 248.416 182.629H248.441Z" fill="white" stroke="#1F2C5C" style="fill:white;fill-opacity:1;stroke:#1F2C5C;stroke:color(display-p3 0.1216 0.1725 0.3608);stroke-opacity:1;" stroke-width="5.02676" stroke-linecap="round" stroke-linejoin="round"/>
<path d="M252.186 139.285C253.77 142.452 253.556 145.23 253.556 145.23L252.186 139.285Z" fill="#1A6DCC" style="fill:#1A6DCC;fill:color(display-p3 0.1020 0.4275 0.8000);fill-opacity:1;"/>
<path d="M252.186 139.285C253.77 142.452 253.556 145.23 253.556 145.23" stroke="#1F2C5C" style="stroke:#1F2C5C;stroke:color(display-p3 0.1216 0.1725 0.3608);stroke-opacity:1;" stroke-width="3.80777" stroke-linecap="round" stroke-linejoin="round"/>
<path d="M257.251 137.074C258.834 140.241 258.62 143.018 258.62 143.018L257.251 137.074Z" fill="#1A6DCC" style="fill:#1A6DCC;fill:color(display-p3 0.1020 0.4275 0.8000);fill-opacity:1;"/>
<path d="M257.251 137.074C258.834 140.241 258.62 143.018 258.62 143.018" stroke="#1F2C5C" style="stroke:#1F2C5C;stroke:color(display-p3 0.1216 0.1725 0.3608);stroke-opacity:1;" stroke-width="3.80777" stroke-linecap="round" stroke-linejoin="round"/>
<path d="M166.342 145.23C166.342 145.23 147.554 164.507 146.486 221.146C146.486 221.146 137.689 196.264 147.667 164.507" fill="#1A6DCC" style="fill:#1A6DCC;fill:color(display-p3 0.1020 0.4275 0.8000);fill-opacity:1;"/>
<path d="M166.342 145.23C166.342 145.23 147.554 164.507 146.486 221.146C146.486 221.146 137.689 196.264 147.667 164.507" stroke="#1F2C5C" style="stroke:#1F2C5C;stroke:color(display-p3 0.1216 0.1725 0.3608);stroke-opacity:1;" stroke-width="5.02676" stroke-linecap="round" stroke-linejoin="round"/>
<path d="M239.732 173.782C239.732 173.782 247.989 180.933 252.023 223.396C252.023 223.396 262.164 203.138 252.186 176.685" fill="#1A6DCC" style="fill:#1A6DCC;fill:color(display-p3 0.1020 0.4275 0.8000);fill-opacity:1;"/>
<path d="M239.732 173.782C239.732 173.782 247.989 180.933 252.023 223.396C252.023 223.396 262.164 203.138 252.186 176.685" stroke="#1F2C5C" style="stroke:#1F2C5C;stroke:color(display-p3 0.1216 0.1725 0.3608);stroke-opacity:1;" stroke-width="5.02676" stroke-linecap="round" stroke-linejoin="round"/>
<path d="M184.212 156.138C180.605 146.75 169.182 149 165.537 159.229" stroke="#1F2C5C" style="stroke:#1F2C5C;stroke:color(display-p3 0.1216 0.1725 0.3608);stroke-opacity:1;" stroke-width="5.02676" stroke-linecap="round" stroke-linejoin="round"/>
<path d="M228.322 158.563C223.27 147.58 213.719 148.346 209.873 155.761" stroke="#1F2C5C" style="stroke:#1F2C5C;stroke:color(display-p3 0.1216 0.1725 0.3608);stroke-opacity:1;" stroke-width="5.02676" stroke-linecap="round" stroke-linejoin="round"/>
<path d="M195.71 234.015C195.71 234.015 198.211 236.088 201.68 234.203L195.71 234.015Z" fill="white" style="fill:white;fill-opacity:1;"/>
<path d="M195.71 234.015C195.71 234.015 198.211 236.088 201.68 234.203" stroke="#1F2C5C" style="stroke:#1F2C5C;stroke:color(display-p3 0.1216 0.1725 0.3608);stroke-opacity:1;" stroke-width="3.77007" stroke-linecap="round" stroke-linejoin="round"/>
<path d="M181.623 215.189C190.193 218.256 209.836 217.326 216.006 215.189C209.836 230.596 190.395 233.449 181.623 215.189Z" fill="white" stroke="#1F2C5C" style="fill:white;fill-opacity:1;stroke:#1F2C5C;stroke:color(display-p3 0.1216 0.1725 0.3608);stroke-opacity:1;" stroke-width="5.02676" stroke-linecap="round" stroke-linejoin="round"/>
<path d="M198.312 174.849L198.45 206.769L190.219 195.723L198.312 174.849Z" fill="white" stroke="#1F2C5C" style="fill:white;fill-opacity:1;stroke:#1F2C5C;stroke:color(display-p3 0.1216 0.1725 0.3608);stroke-opacity:1;" stroke-width="5.02676" stroke-linecap="round" stroke-linejoin="round"/>
<path d="M177.396 184.882C177.491 181.808 175.932 179.266 173.913 179.204C171.894 179.142 170.181 181.582 170.086 184.656C169.991 187.729 171.55 190.271 173.569 190.333C175.588 190.395 177.301 187.955 177.396 184.882Z" fill="#1F2C5C" style="fill:#1F2C5C;fill:color(display-p3 0.1216 0.1725 0.3608);fill-opacity:1;"/>
<path d="M224.17 184.878C224.265 181.805 222.705 179.263 220.686 179.201C218.668 179.139 216.954 181.579 216.859 184.652C216.764 187.726 218.324 190.267 220.342 190.33C222.361 190.392 224.075 187.952 224.17 184.878Z" fill="#1F2C5C" style="fill:#1F2C5C;fill:color(display-p3 0.1216 0.1725 0.3608);fill-opacity:1;"/>
</g>
</svg>
