<svg width="405" height="405" viewBox="0 0 405 405" fill="none" xmlns="http://www.w3.org/2000/svg">
<mask id="mask0_61_32074" style="mask-type:luminance" maskUnits="userSpaceOnUse" x="33" y="72" width="372" height="333">
<path d="M404.376 72.4795H33.0239V405H404.376V72.4795Z" fill="white" style="fill:white;fill-opacity:1;"/>
</mask>
<g mask="url(#mask0_61_32074)">
<path d="M260.56 179.437C267.447 176.559 279.788 184.627 280.215 194.354C289.075 200.763 292.568 223.245 275.276 231.087C275.151 247.776 254.591 256.095 241.748 243.05" fill="#1A6DCC" style="fill:#1A6DCC;fill:color(display-p3 0.1020 0.4275 0.8000);fill-opacity:1;"/>
<path d="M260.56 179.437C267.447 176.559 279.788 184.627 280.215 194.354C289.075 200.763 292.568 223.245 275.276 231.087C275.151 247.776 254.591 256.095 241.748 243.05" stroke="#1F2C5C" style="stroke:#1F2C5C;stroke:color(display-p3 0.1216 0.1725 0.3608);stroke-opacity:1;" stroke-width="5.02676" stroke-linecap="round" stroke-linejoin="round"/>
<path d="M172.718 256.786V284.559L165.479 293.883C167.088 302.479 199.598 373.432 199.598 373.432C199.598 373.432 230.714 307.003 237.161 294.424L227.937 285.162V254.725L172.73 256.786H172.718Z" fill="white" stroke="#1F2C5C" style="fill:white;fill-opacity:1;stroke:#1F2C5C;stroke:color(display-p3 0.1216 0.1725 0.3608);stroke-opacity:1;" stroke-width="5.02676" stroke-linecap="round" stroke-linejoin="round"/>
<g style="mix-blend-mode:darken" opacity="0.2">
<path d="M172.58 269.993L172.165 282.422L166.786 292.777L170.833 302.416L228.05 266.638L228.728 266.978L172.58 269.993Z" fill="#1A6DCC" style="fill:#1A6DCC;fill:color(display-p3 0.1020 0.4275 0.8000);fill-opacity:1;"/>
</g>
<path d="M83.0777 423.524C83.3416 387.457 79.7098 319.834 113.992 303.07C139.704 294.939 166.572 290.817 166.572 290.817C168.055 318.842 193.189 329.85 200.918 370.115C206.384 334.965 231.506 317.962 234.019 290.239C234.019 290.239 272.172 297.051 285.606 302.831C299.04 308.612 311.042 331.798 314.322 355.839C318.205 384.265 316.332 423.511 316.332 423.511H83.0777V423.524Z" fill="#1A6DCC" stroke="#1F2C5C" style="fill:#1A6DCC;fill:color(display-p3 0.1020 0.4275 0.8000);fill-opacity:1;stroke:#1F2C5C;stroke:color(display-p3 0.1216 0.1725 0.3608);stroke-opacity:1;" stroke-width="5.02676" stroke-linecap="round" stroke-linejoin="round"/>
<path d="M148.501 200.159C143.387 197.282 133.459 192.104 132.943 208.931C132.428 225.758 150.487 218.733 150.487 218.733C149.532 233.562 156.946 255.24 176.676 266.5C188.954 274.644 199.9 274.983 199.9 274.983C199.9 274.983 214.352 277.22 232.964 255.341C242.778 242.761 248.634 218.909 248.634 218.909C256.702 223.898 263.526 222.101 264.456 208.014C264.217 193.976 249.187 200.913 249.187 200.913C250.507 182.126 244.965 132.801 203.582 131.519C162.199 130.237 150.273 167.02 148.501 200.159Z" fill="white" stroke="#1F2C5C" style="fill:white;fill-opacity:1;stroke:#1F2C5C;stroke:color(display-p3 0.1216 0.1725 0.3608);stroke-opacity:1;" stroke-width="5.02676" stroke-linecap="round" stroke-linejoin="round"/>
<path d="M165.655 291.597C166.208 303.246 184.631 330.152 200.955 330.152C217.28 330.152 229.244 310.598 234.635 290.767" stroke="#1F2C5C" style="stroke:#1F2C5C;stroke:color(display-p3 0.1216 0.1725 0.3608);stroke-opacity:1;" stroke-width="5.02676" stroke-linecap="round" stroke-linejoin="round"/>
<path d="M148.501 200.159C146.101 197.571 140.773 196.578 140.773 196.578C140.773 196.578 132.868 168.905 145.359 152.493C145.824 134.899 157.109 114.327 167.641 114.855C177.568 99.913 197.336 100.579 205.077 107.943C219.291 100.68 240.127 114.629 239.599 125.172C245.907 130.488 255.622 141.221 253.359 153.222C264.117 166.342 256.086 194.806 256.086 194.806C256.086 194.806 252.078 195.535 249.175 200.913C245.467 173.894 235.766 150.495 213.749 139.222C198.392 131.355 182.809 138.431 182.809 138.431C182.809 138.431 146.742 158.324 148.489 200.147L148.501 200.159Z" fill="#1A6DCC" stroke="#1F2C5C" style="fill:#1A6DCC;fill:color(display-p3 0.1020 0.4275 0.8000);fill-opacity:1;stroke:#1F2C5C;stroke:color(display-p3 0.1216 0.1725 0.3608);stroke-opacity:1;" stroke-width="5.02676" stroke-linecap="round" stroke-linejoin="round"/>
<path d="M220.346 153.75C224.393 150.332 229.633 146.159 231.191 133.995" stroke="#1F2C5C" style="stroke:#1F2C5C;stroke:color(display-p3 0.1216 0.1725 0.3608);stroke-opacity:1;" stroke-width="3.77007" stroke-linecap="round" stroke-linejoin="round"/>
<path d="M184.518 113.511C179.039 129.358 182.13 140.479 186.039 145.192" stroke="#1F2C5C" style="stroke:#1F2C5C;stroke:color(display-p3 0.1216 0.1725 0.3608);stroke-opacity:1;" stroke-width="3.77007" stroke-linecap="round" stroke-linejoin="round"/>
<path d="M157.11 159.216C152.598 152.254 152.849 144.123 154.345 138.129Z" fill="#1A6DCC" style="fill:#1A6DCC;fill:color(display-p3 0.1020 0.4275 0.8000);fill-opacity:1;"/>
<path d="M157.11 159.216C152.598 152.254 152.849 144.123 154.345 138.129" stroke="#1F2C5C" style="stroke:#1F2C5C;stroke:color(display-p3 0.1216 0.1725 0.3608);stroke-opacity:1;" stroke-width="3.77007" stroke-linecap="round" stroke-linejoin="round"/>
<path d="M242.703 175.968C245.656 173.958 249.677 171.193 249.728 160.963" stroke="#1F2C5C" style="stroke:#1F2C5C;stroke:color(display-p3 0.1216 0.1725 0.3608);stroke-opacity:1;" stroke-width="3.77007" stroke-linecap="round" stroke-linejoin="round"/>
<path d="M186.127 177.954C182.52 168.567 171.097 170.816 167.452 181.046" stroke="#1F2C5C" style="stroke:#1F2C5C;stroke:color(display-p3 0.1216 0.1725 0.3608);stroke-opacity:1;" stroke-width="5.02676" stroke-linecap="round" stroke-linejoin="round"/>
<path d="M230.236 180.379C225.184 169.396 215.634 170.162 211.788 177.577" stroke="#1F2C5C" style="stroke:#1F2C5C;stroke:color(display-p3 0.1216 0.1725 0.3608);stroke-opacity:1;" stroke-width="5.02676" stroke-linecap="round" stroke-linejoin="round"/>
<path d="M197.625 255.831C197.625 255.831 200.126 257.904 203.595 256.019Z" fill="white" style="fill:white;fill-opacity:1;"/>
<path d="M197.625 255.831C197.625 255.831 200.126 257.904 203.595 256.019" stroke="#1F2C5C" style="stroke:#1F2C5C;stroke:color(display-p3 0.1216 0.1725 0.3608);stroke-opacity:1;" stroke-width="3.77007" stroke-linecap="round" stroke-linejoin="round"/>
<path d="M183.538 236.993C192.108 240.059 211.75 239.13 217.921 236.993C211.75 252.4 192.309 255.253 183.538 236.993Z" fill="white" stroke="#1F2C5C" style="fill:white;fill-opacity:1;stroke:#1F2C5C;stroke:color(display-p3 0.1216 0.1725 0.3608);stroke-opacity:1;" stroke-width="5.02676" stroke-linecap="round" stroke-linejoin="round"/>
<path d="M200.227 196.666L200.377 228.586L192.134 217.54L200.227 196.666Z" fill="white" stroke="#1F2C5C" style="fill:white;fill-opacity:1;stroke:#1F2C5C;stroke:color(display-p3 0.1216 0.1725 0.3608);stroke-opacity:1;" stroke-width="5.02676" stroke-linecap="round" stroke-linejoin="round"/>
<path d="M179.296 206.732C179.391 203.659 177.831 201.117 175.813 201.055C173.794 200.992 172.08 203.433 171.985 206.506C171.89 209.58 173.45 212.121 175.469 212.184C177.487 212.246 179.201 209.805 179.296 206.732Z" fill="#1F2C5C" style="fill:#1F2C5C;fill:color(display-p3 0.1216 0.1725 0.3608);fill-opacity:1;"/>
<path d="M226.082 206.742C226.177 203.669 224.617 201.127 222.599 201.065C220.58 201.002 218.867 203.443 218.772 206.516C218.677 209.589 220.236 212.131 222.255 212.194C224.273 212.256 225.987 209.815 226.082 206.742Z" fill="#1F2C5C" style="fill:#1F2C5C;fill:color(display-p3 0.1216 0.1725 0.3608);fill-opacity:1;"/>
<path d="M148.733 223.567C149.204 220.472 147.137 217.591 144.118 217.133C141.099 216.674 138.27 218.811 137.8 221.905C137.33 225 139.396 227.881 142.415 228.339C145.434 228.798 148.263 226.661 148.733 223.567Z" fill="#DECF00" style="fill:#DECF00;fill:color(display-p3 0.8706 0.8118 0.0000);fill-opacity:1;"/>
<path d="M260.416 223.565C260.886 220.47 258.82 217.59 255.801 217.131C252.782 216.672 249.953 218.809 249.483 221.904C249.013 224.998 251.079 227.879 254.098 228.338C257.117 228.796 259.946 226.66 260.416 223.565Z" fill="#DECF00" style="fill:#DECF00;fill:color(display-p3 0.8706 0.8118 0.0000);fill-opacity:1;"/>
</g>
</svg>
