<svg width="405" height="405" viewBox="0 0 405 405" fill="none" xmlns="http://www.w3.org/2000/svg">
<mask id="mask0_3_3082" style="mask-type:luminance" maskUnits="userSpaceOnUse" x="18" y="56" width="369" height="349">
<path d="M386.052 56.7681H18.9478V405H386.052V56.7681Z" fill="white" style="fill:white;fill-opacity:1;"/>
</mask>
<g mask="url(#mask0_3_3082)">
<path d="M33.314 426.239C43.8829 363.028 52.1736 302.297 78.6656 288.539C105.158 274.793 146.763 259.059 146.763 259.059H232.504C269.591 273.426 310.158 282.919 317.638 305.93C321.98 319.283 331.992 353.661 341.105 431.53L33.314 426.226V426.239Z" fill="white" stroke="#1F2C5C" style="fill:white;fill-opacity:1;stroke:#1F2C5C;stroke:color(display-p3 0.1216 0.1725 0.3608);stroke-opacity:1;" stroke-width="5.06298" stroke-linecap="round" stroke-linejoin="round"/>
<path d="M149.725 214.176V253.389L139.181 264.325C141.523 274.4 172.685 286.197 188.861 286.197C205.038 286.197 234.162 279.716 243.542 264.945L230.112 254.085V218.391L149.737 214.176H149.725Z" fill="white" stroke="#1F2C5C" style="fill:white;fill-opacity:1;stroke:#1F2C5C;stroke:color(display-p3 0.1216 0.1725 0.3608);stroke-opacity:1;" stroke-width="5.06298" stroke-linecap="round" stroke-linejoin="round"/>
<path opacity="0.2" d="M151.825 225.758L152.015 276.843L226.884 237.833L227.694 220.543L151.825 225.758Z" fill="#1A6DCC" style="fill:#1A6DCC;fill:color(display-p3 0.1020 0.4275 0.8000);fill-opacity:1;"/>
<path d="M172.622 288.969L180.533 312.119L198.721 311.866L205.417 290.26L189.494 274.742L172.622 288.969Z" fill="#1A6DCC" stroke="#1F2C5C" style="fill:#1A6DCC;fill:color(display-p3 0.1020 0.4275 0.8000);fill-opacity:1;stroke:#1F2C5C;stroke:color(display-p3 0.1216 0.1725 0.3608);stroke-opacity:1;" stroke-width="5.69586" stroke-linecap="round" stroke-linejoin="round"/>
<path d="M180.533 312.119L163.508 431.163L215.227 431.251L198.721 311.866L180.533 312.119Z" fill="#1A6DCC" stroke="#1F2C5C" style="fill:#1A6DCC;fill:color(display-p3 0.1020 0.4275 0.8000);fill-opacity:1;stroke:#1F2C5C;stroke:color(display-p3 0.1216 0.1725 0.3608);stroke-opacity:1;" stroke-width="5.69586" stroke-linecap="round" stroke-linejoin="round"/>
<path d="M134.485 264.325L147.889 245.706L189.621 274.109L163.863 302.133L134.485 264.325Z" fill="white" stroke="#1F2C5C" style="fill:white;fill-opacity:1;stroke:#1F2C5C;stroke:color(display-p3 0.1216 0.1725 0.3608);stroke-opacity:1;" stroke-width="5.06298" stroke-linecap="round" stroke-linejoin="round"/>
<path d="M190.013 273.97L232.415 245.858L245.883 263.54L215.568 302.601L190.013 273.97Z" fill="white" stroke="#1F2C5C" style="fill:white;fill-opacity:1;stroke:#1F2C5C;stroke:color(display-p3 0.1216 0.1725 0.3608);stroke-opacity:1;" stroke-width="5.06298" stroke-linecap="round" stroke-linejoin="round"/>
<path d="M139.232 158.989C134.143 156.331 123.258 155.572 123.258 172.026C123.258 188.481 141.409 188.975 141.409 188.975C140.928 203.493 146.738 227.947 166.344 238.352C181.356 247.313 188.862 245.313 192.722 245.313C196.583 245.313 213.088 244.718 226.163 224.631C235.365 212.049 234.112 189.456 234.112 189.456C245.491 188.241 252.263 183.887 252.756 170.09C252.756 158.23 239.378 161.04 239.378 161.04C239.833 149.547 243.504 122.169 231.289 107.739C223.961 99.0816 206.19 99.2208 191.026 99.2208C174.242 99.2208 156.56 97.993 148.624 106.79C137.447 119.194 139.649 140.016 139.232 158.977V158.989Z" fill="white" stroke="#1F2C5C" style="fill:white;fill-opacity:1;stroke:#1F2C5C;stroke:color(display-p3 0.1216 0.1725 0.3608);stroke-opacity:1;" stroke-width="5.06298" stroke-linecap="round" stroke-linejoin="round"/>
<path d="M188.735 170.09L188.887 198.67L180.305 191.342L188.735 170.09Z" fill="white" stroke="#1F2C5C" style="fill:white;fill-opacity:1;stroke:#1F2C5C;stroke:color(display-p3 0.1216 0.1725 0.3608);stroke-opacity:1;" stroke-width="5.06298" stroke-linecap="round" stroke-linejoin="round"/>
<path d="M169.994 165.744C170.078 163.047 168.446 160.808 166.35 160.744C164.254 160.679 162.487 162.813 162.404 165.51C162.32 168.207 163.952 170.446 166.048 170.511C168.144 170.575 169.911 168.441 169.994 165.744Z" fill="#1F2C5C" style="fill:#1F2C5C;fill:color(display-p3 0.1216 0.1725 0.3608);fill-opacity:1;"/>
<path d="M212.259 165.949C212.342 163.252 210.711 161.013 208.615 160.948C206.518 160.883 204.752 163.017 204.668 165.714C204.585 168.411 206.217 170.65 208.313 170.715C210.409 170.779 212.176 168.646 212.259 165.949Z" fill="#1F2C5C" style="fill:#1F2C5C;fill:color(display-p3 0.1216 0.1725 0.3608);fill-opacity:1;"/>
<path d="M147.864 162.483C147.611 171.153 153.307 182.039 164.698 182.039C176.09 182.039 180.546 175.849 180.799 161.736C179.318 152.825 151.585 149.851 147.864 162.483Z" stroke="#1F2C5C" style="stroke:#1F2C5C;stroke:color(display-p3 0.1216 0.1725 0.3608);stroke-opacity:1;" stroke-width="5.06298" stroke-linecap="round" stroke-linejoin="round"/>
<path d="M228.352 162.483C228.606 171.153 222.91 182.038 211.518 182.038C200.126 182.038 195.671 175.849 195.418 161.736C196.899 152.825 224.631 149.851 228.352 162.483Z" stroke="#1F2C5C" style="stroke:#1F2C5C;stroke:color(display-p3 0.1216 0.1725 0.3608);stroke-opacity:1;" stroke-width="5.06298" stroke-linecap="round" stroke-linejoin="round"/>
<path d="M180.432 160.382C185.874 156.673 192.684 158.027 196.026 160.015L180.432 160.382Z" fill="#1A6DCC" style="fill:#1A6DCC;fill:color(display-p3 0.1020 0.4275 0.8000);fill-opacity:1;"/>
<path d="M180.432 160.382C185.874 156.673 192.684 158.027 196.026 160.015" stroke="#1F2C5C" style="stroke:#1F2C5C;stroke:color(display-p3 0.1216 0.1725 0.3608);stroke-opacity:1;" stroke-width="5.06298" stroke-linecap="round" stroke-linejoin="round"/>
<path d="M178.305 148.902C172.748 145.269 164.394 144.041 157.078 148.104L178.305 148.902Z" fill="#1A6DCC" style="fill:#1A6DCC;fill:color(display-p3 0.1020 0.4275 0.8000);fill-opacity:1;"/>
<path d="M178.305 148.902C172.748 145.269 164.394 144.041 157.078 148.104" stroke="#1F2C5C" style="stroke:#1F2C5C;stroke:color(display-p3 0.1216 0.1725 0.3608);stroke-opacity:1;" stroke-width="5.18956" stroke-linecap="round" stroke-linejoin="round"/>
<path d="M196.38 148.902C202.026 145.396 210.405 144.37 217.62 148.611L196.38 148.902Z" fill="#1A6DCC" style="fill:#1A6DCC;fill:color(display-p3 0.1020 0.4275 0.8000);fill-opacity:1;"/>
<path d="M196.38 148.902C202.026 145.396 210.405 144.37 217.62 148.611" stroke="#1F2C5C" style="stroke:#1F2C5C;stroke:color(display-p3 0.1216 0.1725 0.3608);stroke-opacity:1;" stroke-width="5.18956" stroke-linecap="round" stroke-linejoin="round"/>
<path d="M237.428 159.951C238.516 160.065 241.415 157.281 246.858 159.686C247.756 160.078 252.756 162.331 252.756 168.445C252.756 168.445 280.83 133.13 253.68 90.7152C245.782 78.3869 228.935 70.6785 217.606 71.9569C172.786 46.161 125.852 83.5891 118.233 112.397C108.6 148.864 123.245 162.04 123.245 162.04C130.599 151.028 139.814 158.091 139.814 158.091L140.522 157.306C151.319 153.952 164.977 144.459 170.052 123.258C183.494 142.408 206.493 145.636 217.872 150.686C217.872 150.686 232.871 156.42 237.415 159.977L237.428 159.951Z" fill="#1A6DCC" stroke="#1F2C5C" style="fill:#1A6DCC;fill:color(display-p3 0.1020 0.4275 0.8000);fill-opacity:1;stroke:#1F2C5C;stroke:color(display-p3 0.1216 0.1725 0.3608);stroke-opacity:1;" stroke-width="5.06298" stroke-linecap="round" stroke-linejoin="round"/>
<path d="M186.507 226.897C186.507 226.897 188.874 228.859 192.152 227.074L186.507 226.897Z" fill="white" style="fill:white;fill-opacity:1;"/>
<path d="M186.507 226.897C186.507 226.897 188.874 228.859 192.152 227.074" stroke="#1F2C5C" style="stroke:#1F2C5C;stroke:color(display-p3 0.1216 0.1725 0.3608);stroke-opacity:1;" stroke-width="3.79724" stroke-linecap="round" stroke-linejoin="round"/>
<path d="M173.179 209.1C181.28 211.999 199.848 211.113 205.683 209.1C199.861 223.669 181.47 226.365 173.179 209.1Z" fill="white" stroke="#1F2C5C" style="fill:white;fill-opacity:1;stroke:#1F2C5C;stroke:color(display-p3 0.1216 0.1725 0.3608);stroke-opacity:1;" stroke-width="5.06298" stroke-linecap="round" stroke-linejoin="round"/>
<path d="M122.144 262.375L155.041 317.954L185.33 423.34L35.2378 424.885C41.8703 364.369 57.4263 291.88 77.3871 282.146C97.3479 272.413 122.156 262.375 122.156 262.375H122.144Z" fill="#1A6DCC" stroke="#1F2C5C" style="fill:#1A6DCC;fill:color(display-p3 0.1020 0.4275 0.8000);fill-opacity:1;stroke:#1F2C5C;stroke:color(display-p3 0.1216 0.1725 0.3608);stroke-opacity:1;" stroke-width="5.06298" stroke-linecap="round" stroke-linejoin="round"/>
<path d="M122.941 261.971L143.054 254.908L158.079 320.182L120.271 341.384L122.941 261.971Z" fill="#1A6DCC" stroke="#1F2C5C" style="fill:#1A6DCC;fill:color(display-p3 0.1020 0.4275 0.8000);fill-opacity:1;stroke:#1F2C5C;stroke:color(display-p3 0.1216 0.1725 0.3608);stroke-opacity:1;" stroke-width="5.06298" stroke-linecap="round" stroke-linejoin="round"/>
<path d="M262.895 262.375L226.72 317.954L195.279 427.492L347.396 424.885C348.218 361.99 334.08 291.88 312.132 282.146C290.184 272.4 262.895 262.375 262.895 262.375Z" fill="#1A6DCC" stroke="#1F2C5C" style="fill:#1A6DCC;fill:color(display-p3 0.1020 0.4275 0.8000);fill-opacity:1;stroke:#1F2C5C;stroke:color(display-p3 0.1216 0.1725 0.3608);stroke-opacity:1;" stroke-width="5.06298" stroke-linecap="round" stroke-linejoin="round"/>
<path d="M259.832 261.971L239.707 254.908L224.695 320.182L262.503 341.384L259.832 261.971Z" fill="#1A6DCC" stroke="#1F2C5C" style="fill:#1A6DCC;fill:color(display-p3 0.1020 0.4275 0.8000);fill-opacity:1;stroke:#1F2C5C;stroke:color(display-p3 0.1216 0.1725 0.3608);stroke-opacity:1;" stroke-width="5.06298" stroke-linecap="round" stroke-linejoin="round"/>
<path d="M320.271 277.476C320.271 277.476 324.688 279.59 330.321 279.261C335.953 278.931 339.7 271.856 336.764 268.97C333.827 266.084 326.043 259.11 320.132 261.376C314.208 263.641 304.436 272.426 303.158 276.539C301.892 280.653 312.246 308.512 312.246 308.512L312.892 332.991C322.676 338.371 344.915 330.359 344.915 330.359L344.194 313.955C344.194 313.955 347.535 312.98 350.991 309.778C354.446 306.575 362.99 286.931 362.99 286.931C362.99 286.931 359.534 285.374 361.99 282.007C364.445 278.64 368.508 269.767 365.749 265.679C362.99 261.591 352.206 253.262 352.206 253.262L342.94 243.579L332.106 247.503C332.106 247.503 334.017 214.138 328.65 212.72C323.283 211.303 318.866 211.974 318.195 223.454C317.524 234.934 315.638 260.933 315.638 260.933" fill="white" style="fill:white;fill-opacity:1;"/>
<path d="M326.979 261.11C328.853 257.173 336.27 247.769 336.27 247.769C336.27 247.769 340.789 242.579 345.789 245.478C349.333 247.541 349.13 250.579 349.13 253.262C349.13 253.262 354.991 253.667 357.307 255.68C360.395 258.363 360.395 262.717 360.395 262.717C360.395 262.717 362.003 261.654 365.737 265.679C365.737 265.679 368.521 269.97 365.977 275.856C363.471 281.665 353.459 291.753 350.079 293.108C347.016 294.336 344.624 292.146 343.751 290.804C342.219 288.475 344.017 284.146 344.017 284.146C344.017 284.146 340.599 288.032 335.89 286.045C331.422 284.172 333.815 278.096 333.815 278.096" stroke="#1F2C5C" style="stroke:#1F2C5C;stroke:color(display-p3 0.1216 0.1725 0.3608);stroke-opacity:1;" stroke-width="5.48068" stroke-linecap="round" stroke-linejoin="round"/>
<path d="M331.169 254.123C331.169 254.123 335.22 231.162 331.751 217.264C330.283 211.353 322.625 209.138 320.246 213.48C317.854 217.834 318.259 225.682 317.714 232.605C317.17 239.529 315.233 260.54 314.006 263.553" stroke="#1F2C5C" style="stroke:#1F2C5C;stroke:color(display-p3 0.1216 0.1725 0.3608);stroke-opacity:1;" stroke-width="5.48068" stroke-linecap="round" stroke-linejoin="round"/>
<path d="M360.408 284.956C360.408 284.956 361.686 298.753 350.991 309.765C349.851 310.929 348.687 311.79 347.649 312.423C345.51 313.714 344.282 316.119 344.396 318.612L344.915 330.346C344.915 330.346 322.676 338.358 312.892 332.979L312.246 308.499C312.246 308.499 301.88 280.64 303.158 276.526C304.424 272.413 314.208 263.629 320.132 261.363C326.055 259.097 333.827 266.059 336.764 268.957C339.7 271.843 335.953 278.919 330.321 279.248C324.688 279.577 320.271 277.463 320.271 277.463" stroke="#1F2C5C" style="stroke:#1F2C5C;stroke:color(display-p3 0.1216 0.1725 0.3608);stroke-opacity:1;" stroke-width="5.48068" stroke-linecap="round" stroke-linejoin="round"/>
<path d="M344.497 429.657L352.206 328.384L299.361 324.423L286.374 441.542" stroke="#1F2C5C" style="stroke:#1F2C5C;stroke:color(display-p3 0.1216 0.1725 0.3608);stroke-opacity:1;" stroke-width="5.06298" stroke-linecap="round" stroke-linejoin="round"/>
<path d="M360.408 262.705L344.004 284.159" stroke="#1F2C5C" style="stroke:#1F2C5C;stroke:color(display-p3 0.1216 0.1725 0.3608);stroke-opacity:1;" stroke-width="5.48068" stroke-linecap="round" stroke-linejoin="round"/>
<path d="M349.13 253.263L336.764 268.958" stroke="#1F2C5C" style="stroke:#1F2C5C;stroke:color(display-p3 0.1216 0.1725 0.3608);stroke-opacity:1;" stroke-width="5.48068" stroke-linecap="round" stroke-linejoin="round"/>
<path d="M349.13 326.827V320.549L308.17 316.36V322.992" fill="white" style="fill:white;fill-opacity:1;"/>
<path d="M349.13 326.827V320.549L308.17 316.36V322.992" stroke="#1F2C5C" style="stroke:#1F2C5C;stroke:color(display-p3 0.1216 0.1725 0.3608);stroke-opacity:1;" stroke-width="5.06298" stroke-linecap="round" stroke-linejoin="round"/>
<path d="M345.763 429.657L352.206 328.384L299.361 324.423L287.64 441.542" fill="#1A6DCC" style="fill:#1A6DCC;fill:color(display-p3 0.1020 0.4275 0.8000);fill-opacity:1;"/>
<path d="M345.763 429.657L352.206 328.384L299.361 324.423L287.64 441.542" stroke="#1F2C5C" style="stroke:#1F2C5C;stroke:color(display-p3 0.1216 0.1725 0.3608);stroke-opacity:1;" stroke-width="5.06298" stroke-linecap="round" stroke-linejoin="round"/>
<path d="M136.51 332.27L131.51 353.712L163.66 410.734" stroke="#1F2C5C" style="stroke:#1F2C5C;stroke:color(display-p3 0.1216 0.1725 0.3608);stroke-opacity:1;" stroke-width="5.06298" stroke-linecap="round" stroke-linejoin="round"/>
<path d="M245.022 332.27L250.022 353.712L217.872 410.734" stroke="#1F2C5C" style="stroke:#1F2C5C;stroke:color(display-p3 0.1216 0.1725 0.3608);stroke-opacity:1;" stroke-width="5.06298" stroke-linecap="round" stroke-linejoin="round"/>
</g>
</svg>
