<svg width="405" height="405" viewBox="0 0 405 405" fill="none" xmlns="http://www.w3.org/2000/svg">
<g clip-path="url(#clip0_61_32021)">
<mask id="mask0_61_32021" style="mask-type:luminance" maskUnits="userSpaceOnUse" x="21" y="59" width="372" height="346">
<path d="M392.85 59.2593H21.498V405H392.85V59.2593Z" fill="white" style="fill:white;fill-opacity:1;"/>
</mask>
<g mask="url(#mask0_61_32021)">
<path d="M47.5869 426.087C58.0803 363.328 66.3116 303.032 92.6142 289.372C118.917 275.724 160.224 260.104 160.224 260.104H245.352C282.173 274.367 322.45 283.792 329.877 306.639C334.188 319.897 344.128 354.029 353.177 431.34L47.5869 426.075V426.087Z" fill="white" stroke="#1F2C5C" style="fill:white;fill-opacity:1;stroke:#1F2C5C;stroke:color(display-p3 0.1216 0.1725 0.3608);stroke-opacity:1;" stroke-width="5.02676" stroke-linecap="round" stroke-linejoin="round"/>
<path d="M163.152 215.542V254.474L152.684 265.332C155.009 275.335 185.949 287.047 202.009 287.047C218.07 287.047 246.986 280.613 256.298 265.947L242.965 255.165V219.726L163.165 215.542H163.152Z" fill="white" stroke="#1F2C5C" style="fill:white;fill-opacity:1;stroke:#1F2C5C;stroke:color(display-p3 0.1216 0.1725 0.3608);stroke-opacity:1;" stroke-width="5.02676" stroke-linecap="round" stroke-linejoin="round"/>
<path opacity="0.2" d="M165.238 227.04L165.439 277.76L239.76 239.029L240.564 221.862L165.238 227.04Z" fill="#1A6DCC" style="fill:#1A6DCC;fill:color(display-p3 0.1020 0.4275 0.8000);fill-opacity:1;"/>
<path d="M156.743 167.259C151.855 164.696 141.386 163.967 141.386 179.789C141.386 195.61 158.842 196.075 158.842 196.075C158.377 210.037 163.957 233.537 182.807 243.54C197.234 252.149 204.447 250.239 208.167 250.239C211.887 250.239 227.746 249.673 240.313 230.358C249.16 218.256 247.954 196.54 247.954 196.54C258.887 195.372 265.409 191.187 265.874 177.929C265.874 166.53 252.616 164.897 252.616 164.897C253.056 153.85 256.99 131.871 245.252 117.997C238.202 109.678 221.124 109.803 206.558 109.803C190.423 109.803 173.432 108.622 165.804 117.08C155.059 128.993 157.183 149.012 156.768 167.247L156.743 167.259Z" fill="white" stroke="#1F2C5C" style="fill:white;fill-opacity:1;stroke:#1F2C5C;stroke:color(display-p3 0.1216 0.1725 0.3608);stroke-opacity:1;" stroke-width="5.02676" stroke-linecap="round" stroke-linejoin="round"/>
<path d="M185.886 289.799L193.74 312.784L211.799 312.52L218.447 291.081L202.637 275.674L185.886 289.799Z" fill="#1A6DCC" stroke="#1F2C5C" style="fill:#1A6DCC;fill:color(display-p3 0.1020 0.4275 0.8000);fill-opacity:1;stroke:#1F2C5C;stroke:color(display-p3 0.1216 0.1725 0.3608);stroke-opacity:1;" stroke-width="5.02676" stroke-linecap="round" stroke-linejoin="round"/>
<path d="M193.74 312.784L176.838 430.976L228.186 431.064L211.799 312.52L193.74 312.784Z" fill="#1A6DCC" stroke="#1F2C5C" style="fill:#1A6DCC;fill:color(display-p3 0.1020 0.4275 0.8000);fill-opacity:1;stroke:#1F2C5C;stroke:color(display-p3 0.1216 0.1725 0.3608);stroke-opacity:1;" stroke-width="5.02676" stroke-linecap="round" stroke-linejoin="round"/>
<path d="M148.022 265.332L161.33 246.846L202.763 275.046L177.189 302.869L148.022 265.332Z" fill="white" stroke="#1F2C5C" style="fill:white;fill-opacity:1;stroke:#1F2C5C;stroke:color(display-p3 0.1216 0.1725 0.3608);stroke-opacity:1;" stroke-width="5.02676" stroke-linecap="round" stroke-linejoin="round"/>
<path d="M203.165 274.907L245.252 246.996L258.623 264.552L228.538 303.334L203.165 274.907Z" fill="white" stroke="#1F2C5C" style="fill:white;fill-opacity:1;stroke:#1F2C5C;stroke:color(display-p3 0.1216 0.1725 0.3608);stroke-opacity:1;" stroke-width="5.02676" stroke-linecap="round" stroke-linejoin="round"/>
<path d="M201.896 232.205C201.896 232.205 204.12 233.939 207.099 232.205Z" fill="white" style="fill:white;fill-opacity:1;"/>
<path d="M201.896 232.205C201.896 232.205 204.12 233.939 207.099 232.205" stroke="#1F2C5C" style="stroke:#1F2C5C;stroke:color(display-p3 0.1216 0.1725 0.3608);stroke-opacity:1;" stroke-width="3.77007" stroke-linecap="round" stroke-linejoin="round"/>
<path d="M192.986 146.574C187.457 142.955 179.137 141.724 171.849 145.783" stroke="#1F2C5C" style="stroke:#1F2C5C;stroke:color(display-p3 0.1216 0.1725 0.3608);stroke-opacity:1;" stroke-width="5.02676" stroke-linecap="round" stroke-linejoin="round"/>
<path d="M213.872 146.926C219.49 143.432 227.834 142.414 235.022 146.637" stroke="#1F2C5C" style="stroke:#1F2C5C;stroke:color(display-p3 0.1216 0.1725 0.3608);stroke-opacity:1;" stroke-width="5.02676" stroke-linecap="round" stroke-linejoin="round"/>
<path d="M204.321 172.06L204.46 205.412L196.216 196.854L204.321 172.06Z" fill="white" stroke="#1F2C5C" style="fill:white;fill-opacity:1;stroke:#1F2C5C;stroke:color(display-p3 0.1216 0.1725 0.3608);stroke-opacity:1;" stroke-width="5.02676" stroke-linecap="round" stroke-linejoin="round"/>
<path d="M249.236 168.139C250.832 147.931 239.873 147.592 242.563 127.611C244.46 120.309 234.57 114.993 226.691 114.654C218.811 114.327 191.327 114.654 184.391 114.654C177.454 114.654 167.991 109.678 164.522 100.039C161.054 90.4126 166.269 77.1042 181.098 78.7756C195.914 80.4344 209.16 88.3013 232.949 89.0805C249.65 89.6334 259.377 109.866 256.223 137.765C253.069 165.663 258.598 167.46 256.009 166.153C253.421 164.846 249.236 168.139 249.236 168.139Z" fill="#1A6DCC" stroke="#1F2C5C" style="fill:#1A6DCC;fill:color(display-p3 0.1020 0.4275 0.8000);fill-opacity:1;stroke:#1F2C5C;stroke:color(display-p3 0.1216 0.1725 0.3608);stroke-opacity:1;" stroke-width="5.02676" stroke-linecap="round" stroke-linejoin="round"/>
<path d="M181.789 114.692C173.218 112.053 163.579 121.038 164.208 126.718C164.836 132.398 165.125 141.962 160.4 147.642C155.675 153.322 157.384 167.435 157.384 167.435C157.384 167.435 154.707 165.688 149.354 166.002C153.941 141.761 137.729 114.214 164.522 103.381L181.776 114.692H181.789Z" fill="#1A6DCC" stroke="#1F2C5C" style="fill:#1A6DCC;fill:color(display-p3 0.1020 0.4275 0.8000);fill-opacity:1;stroke:#1F2C5C;stroke:color(display-p3 0.1216 0.1725 0.3608);stroke-opacity:1;" stroke-width="5.02676" stroke-linecap="round" stroke-linejoin="round"/>
<path d="M178.848 113.234C174.387 110.457 170.517 98.091 179.037 91.8452" stroke="#1F2C5C" style="stroke:#1F2C5C;stroke:color(display-p3 0.1216 0.1725 0.3608);stroke-opacity:1;" stroke-width="3.77007" stroke-linecap="round" stroke-linejoin="round"/>
<path d="M199.232 114.126C195.386 111.651 192.923 101.61 198.553 97.4751" stroke="#1F2C5C" style="stroke:#1F2C5C;stroke:color(display-p3 0.1216 0.1725 0.3608);stroke-opacity:1;" stroke-width="3.77007" stroke-linecap="round" stroke-linejoin="round"/>
<path d="M187.959 214.548C196.128 229.415 213.872 227.027 220.055 214.209C220.055 214.209 210.844 215.968 203.718 215.968C196.593 215.968 187.959 214.536 187.959 214.536V214.548Z" fill="white" stroke="#1F2C5C" style="fill:white;fill-opacity:1;stroke:#1F2C5C;stroke:color(display-p3 0.1216 0.1725 0.3608);stroke-opacity:1;" stroke-width="5.02676" stroke-linecap="round" stroke-linejoin="round"/>
<path d="M186.335 172.86C186.43 169.786 184.871 167.245 182.852 167.182C180.833 167.12 179.12 169.561 179.025 172.634C178.93 175.707 180.489 178.249 182.508 178.311C184.527 178.374 186.24 175.933 186.335 172.86Z" fill="#1F2C5C" style="fill:#1F2C5C;fill:color(display-p3 0.1216 0.1725 0.3608);fill-opacity:1;"/>
<path d="M226.962 172.866C227.057 169.793 225.498 167.251 223.479 167.189C221.46 167.126 219.747 169.567 219.652 172.64C219.557 175.713 221.116 178.255 223.135 178.318C225.154 178.38 226.867 175.939 226.962 172.866Z" fill="#1F2C5C" style="fill:#1F2C5C;fill:color(display-p3 0.1216 0.1725 0.3608);fill-opacity:1;"/>
</g>
</g>
<defs>
<clipPath id="clip0_61_32021">
<rect width="405" height="405" fill="white" style="fill:white;fill-opacity:1;"/>
</clipPath>
</defs>
</svg>
