<svg width="240" height="240" viewBox="0 0 240 240" fill="none" xmlns="http://www.w3.org/2000/svg">
<path d="M0 82.5C0 53.6223 0 39.1834 5.61998 28.1536C10.5634 18.4515 18.4515 10.5634 28.1536 5.61998C39.1834 0 53.6223 0 82.5 0H157.5C186.378 0 200.817 0 211.846 5.61998C221.548 10.5634 229.437 18.4515 234.38 28.1536C240 39.1834 240 53.6223 240 82.5V157.5C240 186.378 240 200.817 234.38 211.846C229.437 221.548 221.548 229.437 211.846 234.38C200.817 240 186.378 240 157.5 240H82.5C53.6223 240 39.1834 240 28.1536 234.38C18.4515 229.437 10.5634 221.548 5.61998 211.846C0 200.817 0 186.378 0 157.5V82.5Z" fill="white" style="fill:white;fill-opacity:1;"/>
<mask id="mask0_3_425" style="mask-type:alpha" maskUnits="userSpaceOnUse" x="0" y="0" width="240" height="240">
<path d="M0 82.5C0 53.6223 0 39.1834 5.61998 28.1536C10.5634 18.4515 18.4515 10.5634 28.1536 5.61998C39.1834 0 53.6223 0 82.5 0H157.5C186.378 0 200.817 0 211.846 5.61998C221.548 10.5634 229.437 18.4515 234.38 28.1536C240 39.1834 240 53.6223 240 82.5V157.5C240 186.378 240 200.817 234.38 211.846C229.437 221.548 221.548 229.437 211.846 234.38C200.817 240 186.378 240 157.5 240H82.5C53.6223 240 39.1834 240 28.1536 234.38C18.4515 229.437 10.5634 221.548 5.61998 211.846C0 200.817 0 186.378 0 157.5V82.5Z" fill="white" style="fill:white;fill-opacity:1;"/>
</mask>
<g mask="url(#mask0_3_425)">
<rect x="-24" y="-20.4" width="283.452" height="283.452" rx="45.9375" fill="white" style="fill:white;fill-opacity:1;"/>
<path d="M25.6561 198.18C40.1641 208.02 60.8761 203.676 79.0321 191.724C97.1881 179.772 111.96 180.576 111.96 180.576C125.088 179.376 134.76 186.288 133.68 195.984C132.6 205.68 121.5 213.348 107.88 215.712C143.232 213.144 147.708 189.72 147.708 189.72C152.94 171.096 132.468 159.636 106.908 165.72C134.04 136.284 155.928 134.124 155.928 134.124C176.1 127.944 191.088 140.4 189.408 161.916C187.728 183.432 170.784 203.16 149.808 212.04C204.132 196.848 210.864 144.42 210.864 144.42C222.12 84.636 153.924 70.26 96.8641 150.42C54.0001 210.636 23.3401 195.936 23.3401 195.936C23.98 196.809 24.7631 197.568 25.6561 198.18Z" fill="#1C2B59" style="fill:#1C2B59;fill:color(display-p3 0.1098 0.1686 0.3490);fill-opacity:1;"/>
<path d="M35.8682 192.408C35.8682 192.408 87.7682 175.2 98.8082 110.28C105.78 69.2759 118.08 46.3559 141.24 26.3999C141.24 26.3999 71.9882 41.9999 68.6882 107.352C65.6162 168.072 54.0002 178.08 35.8682 192.408Z" fill="#005BAB" style="fill:#005BAB;fill:color(display-p3 0.0000 0.3569 0.6706);fill-opacity:1;"/>
<path d="M43.4881 178.068C43.4881 178.068 61.4881 158.652 61.3081 112.068C61.2001 83.664 67.5121 66.816 81.6001 49.536C81.6001 49.536 46.2601 68.22 50.6281 115.728C52.2601 133.728 53.2561 159.708 43.4881 178.068Z" fill="#008BD5" style="fill:#008BD5;fill:color(display-p3 0.0000 0.5451 0.8353);fill-opacity:1;"/>
<path d="M101.724 128.88C101.724 128.88 107.256 119.28 111.324 94.98C117.816 55.716 151.788 39.78 151.788 39.78C151.788 39.78 131.124 62.868 127.32 88.092C126.115 96.2938 123.217 104.155 118.81 111.177C114.404 118.199 108.585 124.227 101.724 128.88Z" fill="#C8C9CA" style="fill:#C8C9CA;fill:color(display-p3 0.7843 0.7882 0.7922);fill-opacity:1;"/>
</g>
</svg>
