<svg width="324" height="167" viewBox="0 0 324 167" fill="none" xmlns="http://www.w3.org/2000/svg">
<path d="M1.76562 135.681C12.8673 143.122 28.7095 139.84 42.5926 130.806C56.4757 121.772 67.795 122.378 67.795 122.378C77.8325 121.478 85.2739 126.695 84.4112 134.024C83.5486 141.353 75.051 147.144 64.6588 148.937C91.6994 146.993 95.1178 129.292 95.1178 129.292C99.1489 115.216 83.4599 106.557 63.8929 111.138C84.645 88.8962 101.382 87.2392 101.382 87.2392C116.813 82.5791 128.278 92.0189 126.996 108.246C125.714 124.473 112.75 139.417 96.7383 146.125C138.291 134.646 143.435 95.0221 143.435 95.0221C152.045 49.8463 99.8987 38.9805 56.2338 99.5947C23.4529 145.089 0 133.984 0 133.984C0.488263 134.644 1.0851 135.217 1.76562 135.681V135.681Z" fill="#1F2C5C" style="fill:#1F2C5C;fill:color(display-p3 0.1216 0.1725 0.3608);fill-opacity:1;"/>
<path d="M9.5863 131.323C9.5863 131.323 49.2765 118.315 57.7176 69.2514C63.0467 38.2711 72.4634 20.9528 90.1679 5.84106C90.1679 5.84106 37.2074 17.607 34.6759 67.0129C32.3217 112.93 23.4533 120.489 9.5863 131.323Z" fill="#005BAC" style="fill:#005BAC;fill:color(display-p3 0.0000 0.3569 0.6745);fill-opacity:1;"/>
<path d="M15.391 120.482C15.391 120.482 29.1451 105.808 29.0242 70.6137C28.9516 49.145 33.7728 36.4072 44.5116 23.3507C44.5116 23.3507 17.4872 37.4746 20.833 73.3779C22.1149 86.9841 22.8727 106.613 15.391 120.482Z" fill="#008CD6" style="fill:#008CD6;fill:color(display-p3 0.0000 0.5490 0.8392);fill-opacity:1;"/>
<path d="M59.9508 83.3116C59.9508 83.3116 64.1754 76.0465 67.2552 57.6925C72.2215 28.0187 98.1979 15.9899 98.1979 15.9899C98.1979 15.9899 82.4363 33.4277 79.5258 52.4906C78.6039 58.6882 76.3876 64.6286 73.0177 69.9346C69.6478 75.2405 65.198 79.7959 59.9508 83.3116Z" fill="#C9CACA" style="fill:#C9CACA;fill:color(display-p3 0.7882 0.7922 0.7922);fill-opacity:1;"/>
<path d="M177.199 76.3492V71.3863H184.036V70.048C184.027 67.2118 184.314 64.3822 184.891 61.6039C185.286 59.6755 186.193 57.8856 187.519 56.418C188.772 55.1154 190.37 54.1855 192.131 53.7334C194.462 53.1874 196.854 52.941 199.249 53.0005H202.361L203.168 58.3697H199.137C197.897 58.3393 196.66 58.4814 195.46 58.7919C194.622 59.0183 193.837 59.4024 193.146 59.9231C192.474 60.5323 192.011 61.3347 191.824 62.2173C191.544 63.2615 191.355 64.3276 191.26 65.4038C191.155 66.511 191.107 68.0485 191.107 70.0082V71.3465H201.684V76.3094H191.147V117.502H184.004V76.3492H177.199Z" fill="#1F2C5C" style="fill:#1F2C5C;fill:color(display-p3 0.1216 0.1725 0.3608);fill-opacity:1;"/>
<path d="M218.559 54.0919V99.3953C218.559 101.307 218.559 102.805 218.599 103.896C218.639 104.987 218.696 106.095 218.809 107.234C218.87 108.097 219.035 108.95 219.3 109.775C219.52 110.35 219.831 110.888 220.219 111.368C220.578 111.834 221.074 112.179 221.638 112.356C222.31 112.54 223.005 112.626 223.702 112.611C224.041 112.611 225.315 112.523 227.532 112.356L227.991 117.861C226.396 118.168 224.778 118.349 223.154 118.402C221.727 118.422 220.303 118.288 218.905 118.004C217.852 117.782 216.821 117.464 215.826 117.056C214.91 116.641 214.167 115.926 213.721 115.033C213.229 114.173 212.795 113.281 212.423 112.364C212.019 111.112 211.783 109.813 211.722 108.501C211.585 106.756 211.496 105.195 211.472 103.824C211.448 102.454 211.424 100.447 211.424 97.818V54.9284L218.559 54.0919Z" fill="#1F2C5C" style="fill:#1F2C5C;fill:color(display-p3 0.1216 0.1725 0.3608);fill-opacity:1;"/>
<path d="M242.632 54.6735V62.9901H235.489V54.6735H242.632ZM242.632 71.4023V117.502H235.489V71.3864L242.632 71.4023Z" fill="#1F2C5C" style="fill:#1F2C5C;fill:color(display-p3 0.1216 0.1725 0.3608);fill-opacity:1;"/>
<path d="M273.696 118.546C267.069 118.546 261.842 116.377 258.015 112.038C254.188 107.699 252.275 101.807 252.275 94.3611C252.275 87.4571 254.188 81.7666 258.015 77.2897C259.812 75.1143 262.074 73.359 264.639 72.1497C267.204 70.9404 270.008 70.3072 272.85 70.2954C278.633 70.2954 283.201 72.2976 286.555 76.3019C289.909 80.3062 291.589 85.7231 291.594 92.5528C291.594 92.7758 291.594 93.2936 291.546 94.0902C291.497 94.8868 291.546 95.4285 291.546 95.6834H259.587C259.587 100.782 260.931 104.858 263.618 107.911C264.877 109.387 266.455 110.563 268.235 111.355C270.016 112.146 271.954 112.532 273.906 112.484C279.2 112.478 284.364 110.865 288.7 107.864L290.909 112.978C286.55 116.69 280.812 118.546 273.696 118.546ZM259.845 90.8321H284.709C284.709 86.0524 283.618 82.3933 281.436 79.8548C280.391 78.6019 279.07 77.6027 277.573 76.9343C276.076 76.2658 274.443 75.9459 272.801 75.9992C271.115 75.9608 269.442 76.2991 267.906 76.9887C266.371 77.6784 265.012 78.7016 263.933 79.9822C261.6 82.6748 260.238 86.2914 259.845 90.8321Z" fill="#1F2C5C" style="fill:#1F2C5C;fill:color(display-p3 0.1216 0.1725 0.3608);fill-opacity:1;"/>
<path d="M300.301 117.502V82.0133C300.301 80.7865 300.282 78.9968 300.245 76.6441C300.196 74.2543 300.172 72.5416 300.172 71.3865H306.211L306.767 79.3526C309.707 74.0419 314.238 71.3865 320.36 71.3865H321.755L322.263 77.8151H320.569C316.404 77.8151 313.179 79.0127 310.895 81.4078C308.59 83.8598 307.361 87.1131 307.476 90.4574V117.502H300.301Z" fill="#1F2C5C" style="fill:#1F2C5C;fill:color(display-p3 0.1216 0.1725 0.3608);fill-opacity:1;"/>
</svg>
